<svg width="351" height="838" viewBox="0 0 351 838" fill="none" xmlns="http://www.w3.org/2000/svg">
<path d="M217.424 51.679C217.424 51.679 219.106 28.0221 208.121 13.649C197.137 -0.72397 171.827 -0.702673 160.928 3.51341C150.029 7.7295 138.982 15.3525 136.448 28.0221C134.889 37.2258 134.318 46.5699 134.745 55.8951C134.745 55.8951 126.231 57.5772 128.849 66.8824C130.203 72.2035 132.809 77.1239 136.448 81.2342C136.448 81.2342 138.982 93.052 140.706 98.1198C142.43 103.188 151.69 114.175 151.69 114.175C151.69 114.175 153.371 126.951 147.432 131.061C141.493 135.17 127.167 138.684 106.987 145.434C86.8073 152.184 68.1387 169.921 63.9238 192.726C61.3826 206.372 60.8163 220.313 62.2422 234.12L54.4938 282.265C49.3718 295.493 46.494 309.483 45.979 323.659C45.1275 347.316 43.8503 382.258 43.8503 382.258C43.8503 382.258 45.979 397.994 34.0796 403.914C22.1802 409.833 21.3075 414.049 19.7109 418.265C18.1144 422.481 17.1778 430.935 13.7932 433.469C10.4086 436.003 -0.554208 433.469 1.02102 441.986C2.59626 450.504 14.5382 445.372 14.5382 445.372L22.1376 443.668V486.745C22.1376 491.003 24.6708 496.88 28.9069 491.813C28.9069 491.813 33.1642 497.732 35.6548 495.198L39.7632 492.835C39.7632 492.835 44.7656 494.964 47.1072 494.006C49.4487 493.048 54.1532 486.66 54.1532 486.66C54.1532 486.66 55.324 490.173 59.7304 484.892C64.1367 479.612 64.7115 473.16 65.8823 468.752C67.053 464.344 70.8847 440.261 72.0555 436.152C73.2262 432.042 72.0555 410.323 72.0555 410.323L71.1827 400.933C71.1827 400.933 90.3409 348.956 93.4914 336.627C96.6419 324.298 100.239 311.373 101.41 300.79C102.78 291.463 104.678 282.221 107.094 273.109L109.797 263.612C109.797 263.612 109.925 318.08 108.754 324.532C107.583 330.984 98.7706 343.036 99.6433 358.303C100.516 373.571 95.2369 399.421 93.7681 408.215C92.2993 417.009 81.145 446.969 85.8494 496.007C90.5538 545.046 100.367 572.536 106.072 594.34C111.777 616.145 110.223 630.156 107.647 650.917C105.071 671.678 109.201 681.025 116.46 707.493C123.719 733.961 136.704 761.983 138.258 772.374C139.812 782.765 135.129 783.787 132.553 790.005C129.977 796.222 115.949 812.342 115.417 819.07C114.885 825.799 119.568 831.016 132.553 834.657C145.538 838.298 154.862 838.277 161.077 829.972C167.293 821.668 167.825 816.494 167.314 810.255C166.804 804.016 165.186 802.994 167.314 797.287C169.443 791.581 171.976 788.45 170.422 778.592C168.868 768.733 169.911 777.548 165.76 757.298C161.61 737.048 166.271 710.581 166.271 699.167C166.271 687.754 166.271 660.839 163.674 647.254C161.077 633.669 160.566 639.993 159.013 621.319C157.459 602.645 160.034 600.558 160.034 587.058C160.051 579.031 159.188 571.026 157.459 563.188C157.459 563.188 167.825 509.209 168.336 507.123C168.847 505.036 176.638 469.242 176.638 469.242C177.545 469.381 178.405 469.736 179.146 470.277C179.887 470.818 180.487 471.529 180.895 472.351C181.939 474.948 195.434 562.656 195.434 562.656C195.434 562.656 190.24 576.667 190.773 586.078C191.305 595.49 197.116 621.915 197.116 621.915C197.116 621.915 192.859 638.524 189.325 664.502C185.791 690.48 191.454 717.437 190.9 733.535C190.735 743.981 189.508 754.383 187.239 764.581C185.685 771.842 182.982 782.233 185.685 790.005L188.282 797.798C187.089 804.831 186.569 811.961 186.728 819.092C187.239 828.439 191.39 834.678 197.606 835.7C203.821 836.722 207.994 831.037 207.994 831.037C210.399 832.436 213.058 833.344 215.817 833.71C218.575 834.075 221.379 833.89 224.065 833.166C232.899 830.569 239.115 826.928 237.05 819.666C235.365 812.344 232.183 805.449 227.705 799.416C222.001 791.644 218.36 790.601 216.807 781.253C215.137 771.706 215.868 761.893 218.935 752.699C222.043 744.394 235.539 718.97 241.755 685.242C247.971 651.513 246.949 649.426 245.395 637.481C243.841 625.535 244.863 600.111 247.524 587.143C250.184 574.175 268.278 527.522 268.278 489.577C268.278 451.632 260.509 404.978 258.422 396.674C256.78 388.611 255.572 380.465 254.804 372.272C254.804 372.272 257.912 359.815 254.804 348.849C251.696 337.883 249.61 333.795 247.013 321.87C244.903 311.405 243.347 300.836 242.351 290.207V269.936C242.351 269.936 252.207 293.806 256.868 310.393C261.53 326.981 261.53 336.861 266.724 352.448C271.918 368.034 282.817 397.164 284.882 403.296C286.947 409.429 282.285 420.331 284.371 437.046C286.457 453.761 288.522 482.188 292.162 486.34C295.802 490.492 299.932 485.829 299.932 485.829C299.932 485.829 301.486 494.134 304.615 495.177C307.744 496.22 311.874 493.048 311.874 493.048C311.977 493.721 312.24 494.359 312.641 494.909C313.042 495.46 313.569 495.906 314.178 496.21C314.787 496.515 315.46 496.669 316.14 496.659C316.821 496.65 317.489 496.478 318.09 496.156C319.483 495.718 320.763 494.98 321.84 493.994C322.918 493.009 323.766 491.799 324.327 490.45C324.327 490.45 332.096 493.58 331.075 483.189C330.053 472.798 327.435 458.787 327.435 455.678C327.435 452.569 327.945 442.71 327.945 442.71C327.945 442.71 333.14 446.862 337.29 447.373C341.441 447.884 345.592 452.058 348.7 447.373C351.808 442.689 349.232 441.156 343.528 437.515C337.823 433.873 337.29 432.851 333.139 426.612C328.989 420.373 332.629 418.84 323.795 411.047C314.961 403.254 309.277 399.634 309.277 392.884C309.277 386.134 316.025 344.101 309.788 313.992C303.551 283.883 300.464 276.111 299.421 271.405C298.378 266.699 289.033 231.437 289.033 231.437C289.033 231.437 297.335 198.752 282.817 171.241C268.3 143.73 248.567 145.817 233.517 139.067C218.467 132.317 206.546 130.763 204.46 126.61C202.954 122.95 201.91 119.116 201.352 115.197C201.352 115.197 214.848 96.5015 215.359 90.2838L215.87 84.0449C215.87 84.0449 224.172 80.9361 226.258 64.8809C228.344 48.8257 217.424 51.679 217.424 51.679Z" fill="white"/>
<path d="M217.424 51.679C217.424 51.679 219.106 28.0221 208.121 13.649C197.137 -0.72397 171.827 -0.702673 160.928 3.51341C150.029 7.7295 138.982 15.3525 136.448 28.0221C134.889 37.2258 134.318 46.5699 134.745 55.8951C134.745 55.8951 126.231 57.5772 128.849 66.8824C130.203 72.2035 132.809 77.1239 136.448 81.2342C136.448 81.2342 138.982 93.052 140.706 98.1198C142.43 103.188 151.69 114.175 151.69 114.175C151.69 114.175 153.371 126.951 147.432 131.061C141.493 135.17 127.167 138.684 106.987 145.434C86.8073 152.184 68.1387 169.921 63.9238 192.726C61.3826 206.372 60.8163 220.313 62.2422 234.12L54.4938 282.265C49.3718 295.493 46.494 309.483 45.979 323.659C45.1275 347.316 43.8503 382.258 43.8503 382.258C43.8503 382.258 45.979 397.994 34.0796 403.914C22.1802 409.833 21.3075 414.049 19.7109 418.265C18.1144 422.481 17.1778 430.935 13.7932 433.469C10.4086 436.003 -0.554208 433.469 1.02102 441.986C2.59626 450.504 14.5382 445.372 14.5382 445.372L22.1376 443.668V486.745C22.1376 491.003 24.6708 496.88 28.9069 491.813C28.9069 491.813 33.1642 497.732 35.6548 495.198L39.7632 492.835C39.7632 492.835 44.7656 494.964 47.1072 494.006C49.4488 493.048 54.1532 486.66 54.1532 486.66C54.1532 486.66 55.324 490.173 59.7303 484.892C64.1367 479.612 64.7115 473.16 65.8823 468.752C67.053 464.344 70.8847 440.261 72.0555 436.152C73.2262 432.042 72.0555 410.323 72.0555 410.323L71.1827 400.933C71.1827 400.933 90.3409 348.956 93.4914 336.627C96.6419 324.298 100.239 311.373 101.41 300.79C102.78 291.463 104.678 282.221 107.094 273.109L109.797 263.612C109.797 263.612 109.925 318.08 108.754 324.532C107.583 330.984 98.7706 343.036 99.6433 358.303C100.516 373.571 95.2369 399.421 93.7681 408.215C92.2993 417.009 81.145 446.969 85.8494 496.007C90.5538 545.046 100.367 572.536 106.072 594.34C111.777 616.145 110.223 630.156 107.647 650.917C105.071 671.678 109.201 681.025 116.46 707.493C123.719 733.961 136.704 761.983 138.258 772.374C139.812 782.765 135.129 783.787 132.553 790.005C129.977 796.223 115.949 812.342 115.417 819.07C114.885 825.799 119.568 831.016 132.553 834.657C145.538 838.298 154.862 838.277 161.077 829.972C167.293 821.668 167.825 816.494 167.314 810.255C166.804 804.016 165.186 802.994 167.314 797.287C169.443 791.581 171.976 788.45 170.422 778.592C168.868 768.733 169.911 777.548 165.76 757.298C161.61 737.048 166.271 710.581 166.271 699.167C166.271 687.754 166.271 660.839 163.674 647.254C161.077 633.669 160.566 639.993 159.013 621.319C157.459 602.645 160.034 600.558 160.034 587.058C160.051 579.031 159.188 571.026 157.459 563.188C157.459 563.188 167.825 509.209 168.336 507.123C168.847 505.036 176.638 469.242 176.638 469.242C177.545 469.381 178.405 469.736 179.146 470.277C179.887 470.818 180.487 471.529 180.895 472.351C181.939 474.948 195.434 562.656 195.434 562.656C195.434 562.656 190.24 576.667 190.773 586.078C191.305 595.49 197.116 621.915 197.116 621.915C197.116 621.915 192.859 638.524 189.325 664.502C185.791 690.48 191.454 717.437 190.9 733.535C190.735 743.981 189.508 754.383 187.239 764.581C185.685 771.842 182.982 782.233 185.685 790.005L188.282 797.798C187.089 804.831 186.569 811.961 186.728 819.092C187.239 828.439 191.39 834.678 197.606 835.7C203.821 836.722 207.994 831.037 207.994 831.037C210.399 832.436 213.058 833.344 215.817 833.71C218.575 834.075 221.379 833.89 224.065 833.166C232.899 830.569 239.115 826.928 237.05 819.666C235.365 812.344 232.183 805.449 227.705 799.416C222.001 791.644 218.36 790.601 216.807 781.253C215.137 771.706 215.868 761.893 218.935 752.699C222.043 744.394 235.539 718.97 241.755 685.242C247.971 651.513 246.949 649.426 245.395 637.481C243.841 625.535 244.863 600.111 247.524 587.143C250.184 574.175 268.278 527.522 268.278 489.577C268.278 451.632 260.509 404.978 258.422 396.674C256.78 388.611 255.572 380.465 254.804 372.272C254.804 372.272 257.912 359.815 254.804 348.849C251.696 337.883 249.61 333.795 247.013 321.87C244.903 311.405 243.347 300.836 242.351 290.207V269.936C242.351 269.936 252.207 293.806 256.869 310.393C261.53 326.981 261.53 336.861 266.724 352.448C271.918 368.034 282.817 397.164 284.882 403.296C286.947 409.429 282.285 420.331 284.371 437.046C286.457 453.761 288.522 482.188 292.162 486.34C295.802 490.492 299.932 485.829 299.932 485.829C299.932 485.829 301.486 494.134 304.615 495.177C307.744 496.22 311.874 493.048 311.874 493.048C311.977 493.721 312.24 494.359 312.641 494.909C313.042 495.46 313.569 495.906 314.178 496.21C314.787 496.515 315.46 496.669 316.14 496.659C316.821 496.65 317.489 496.478 318.09 496.156C319.483 495.718 320.763 494.98 321.84 493.994C322.918 493.009 323.766 491.799 324.327 490.45C324.327 490.45 332.096 493.58 331.075 483.189C330.053 472.798 327.435 458.787 327.435 455.678C327.435 452.569 327.945 442.71 327.945 442.71C327.945 442.71 333.14 446.862 337.29 447.373C341.441 447.884 345.592 452.058 348.7 447.373C351.808 442.689 349.232 441.156 343.528 437.515C337.823 433.873 337.29 432.851 333.14 426.612C328.989 420.373 332.629 418.84 323.795 411.047C314.961 403.254 309.277 399.634 309.277 392.884C309.277 386.134 316.025 344.101 309.788 313.992C303.551 283.883 300.464 276.111 299.421 271.405C298.378 266.699 289.033 231.437 289.033 231.437C289.033 231.437 297.335 198.752 282.817 171.241C268.3 143.73 248.567 145.817 233.517 139.067C218.467 132.317 206.546 130.763 204.46 126.61C202.954 122.95 201.91 119.116 201.352 115.197C201.352 115.197 214.848 96.5015 215.359 90.2838L215.87 84.0449C215.87 84.0449 224.172 80.9361 226.258 64.8809C228.344 48.8257 217.424 51.679 217.424 51.679Z" stroke="#263238" stroke-miterlimit="10"/>
<path d="M291.674 418.138C289.839 414.469 288.836 410.442 288.736 406.341C288.607 402.334 288.735 398.323 289.119 394.332C289.417 390.307 290.056 386.368 290.716 382.429C291.376 378.489 292.121 374.614 292.844 370.696C292.936 370.306 293.176 369.967 293.515 369.752C293.853 369.537 294.262 369.463 294.654 369.546C294.92 369.605 295.166 369.735 295.365 369.923C295.563 370.11 295.708 370.348 295.782 370.611C298.294 379.661 300.508 388.732 302.317 397.93C303.169 402.53 303.935 407.15 304.446 411.835C304.574 413.006 304.68 414.177 304.701 415.37C304.765 416.554 304.765 417.741 304.701 418.926C304.701 421.332 304.339 423.631 304.105 425.952C302.813 435.168 302.102 444.456 301.977 453.761C301.965 458.404 302.436 463.035 303.381 467.581C304.209 472.181 306.354 476.441 309.555 479.846C306.246 476.502 303.976 472.272 303.02 467.666C302.005 463.078 301.47 458.396 301.423 453.698C301.284 444.359 301.731 435.021 302.764 425.739C303.999 416.498 302.168 407.406 300.274 398.314C298.379 389.221 295.803 380.278 293.057 371.441H295.995C295.087 375.274 294.235 379.121 293.44 382.982C292.653 386.858 291.929 390.733 291.503 394.608C290.996 398.492 290.74 402.404 290.737 406.32C290.71 410.177 291.531 413.994 293.142 417.499C293.236 417.68 293.253 417.89 293.191 418.084C293.129 418.277 292.993 418.438 292.812 418.532C292.632 418.625 292.422 418.642 292.228 418.58C292.034 418.519 291.873 418.382 291.78 418.202L291.674 418.138Z" fill="#263238"/>
<path d="M258.614 165.322C260.872 166.426 262.952 167.862 264.787 169.58C265.681 170.368 266.511 171.262 267.363 172.093L269.683 174.818C272.558 178.585 274.987 182.672 276.921 186.998C280.635 195.61 283.059 204.722 284.116 214.041C284.52 216.34 284.69 218.661 284.882 220.982C285.074 223.303 285.35 225.603 285.371 227.924C285.478 232.566 285.691 237.272 285.563 241.829C285.47 250.998 285.847 260.166 286.691 269.297C287.142 273.834 287.853 278.341 288.82 282.797C289.82 287.056 291.247 291.634 292.396 296.084C294.78 305.006 296.994 313.971 298.974 322.978C300.954 331.985 302.72 341.077 304.019 350.254C305.467 359.406 305.881 368.692 305.253 377.936C305.245 378.028 305.219 378.118 305.176 378.2C305.133 378.283 305.075 378.355 305.003 378.415C304.932 378.474 304.85 378.519 304.761 378.546C304.673 378.574 304.579 378.583 304.487 378.575C304.301 378.553 304.13 378.463 304.007 378.32C303.885 378.178 303.821 377.995 303.827 377.808C304.248 368.664 303.655 359.502 302.06 350.489C300.677 341.418 298.825 332.411 296.739 323.446C294.653 314.482 292.354 305.581 289.884 296.723C288.671 292.251 287.223 287.971 286.138 283.351C285.155 278.79 284.445 274.176 284.009 269.531C283.108 260.332 282.682 251.093 282.732 241.85C282.838 237.187 282.625 232.694 282.498 228.116C282.498 225.837 282.136 223.559 281.987 221.281C281.838 219.002 281.604 216.745 281.199 214.488C280.13 205.463 277.757 196.64 274.153 188.297C272.34 184.198 270.054 180.324 267.341 176.756L265.213 174.222C264.425 173.456 263.68 172.625 262.85 171.901C261.279 170.472 259.516 169.268 257.613 168.324H257.443C257.248 168.24 257.073 168.117 256.929 167.961C256.784 167.806 256.674 167.623 256.604 167.423C256.534 167.223 256.506 167.01 256.522 166.799C256.538 166.587 256.598 166.382 256.698 166.195C256.841 165.828 257.121 165.533 257.479 165.37C257.837 165.207 258.244 165.189 258.614 165.322Z" fill="#263238"/>
<path d="M202.651 196.559C205.4 196.939 208.19 196.245 210.442 194.621C212.653 192.807 214.22 190.328 214.912 187.552C215.69 184.636 216.063 181.626 216.019 178.609L216.147 173.775C216.338 172.157 216.381 170.538 216.7 168.92C217.23 165.66 218.219 162.491 219.638 159.509C221.158 156.419 223.558 153.849 226.535 152.12C229.625 150.486 233.206 150.039 236.603 150.863C237.424 151.005 238.23 151.227 239.009 151.524C239.809 151.757 240.592 152.049 241.35 152.397C242.823 153.066 244.246 153.842 245.608 154.718C250.967 158.28 255.858 162.501 260.168 167.281C264.626 171.99 268.113 177.533 270.428 183.591C272.623 189.735 273.101 196.36 271.812 202.755C270.489 209.058 268.221 215.124 265.085 220.748C261.956 226.348 258.55 231.544 256.698 237.485C254.734 243.338 254.534 249.64 256.123 255.605C258.077 261.516 261.172 266.986 265.234 271.703C267.171 274.152 269.236 276.579 271.088 279.199C272.94 281.818 274.707 284.373 276.452 287.034C283.528 297.604 289.182 309.059 293.269 321.104C297.369 333.163 299.216 345.874 298.718 358.601C298.716 358.666 298.7 358.729 298.673 358.787C298.646 358.846 298.608 358.898 298.56 358.942C298.513 358.985 298.457 359.019 298.397 359.041C298.336 359.063 298.272 359.073 298.208 359.07C298.143 359.067 298.08 359.052 298.022 359.025C297.963 358.997 297.911 358.959 297.867 358.911C297.824 358.864 297.79 358.808 297.768 358.748C297.746 358.687 297.736 358.623 297.739 358.559C298.141 345.967 296.229 333.409 292.098 321.508C287.951 309.62 282.269 298.324 275.196 287.907C273.451 285.31 271.641 282.733 269.811 280.157C267.98 277.58 265.937 275.259 263.957 272.768C259.724 267.912 256.49 262.268 254.442 256.159C252.725 249.862 252.888 243.201 254.91 236.995C256.783 230.799 260.359 225.284 263.318 219.96C266.312 214.509 268.465 208.637 269.704 202.542C270.897 196.501 270.411 190.249 268.299 184.464C266.052 178.709 262.688 173.455 258.401 169.005C254.218 164.421 249.476 160.379 244.288 156.975C243.005 156.173 241.667 155.462 240.286 154.845C239.591 154.552 238.88 154.296 238.157 154.079C237.468 153.819 236.755 153.627 236.028 153.504C233.224 152.825 230.269 153.204 227.727 154.568C225.241 156.059 223.244 158.242 221.979 160.85C220.709 163.594 219.834 166.505 219.382 169.495C219.105 170.986 219.063 172.519 218.893 174.052V178.694C218.951 181.996 218.564 185.29 217.743 188.489C216.859 191.843 214.927 194.827 212.23 197.006C209.317 199.151 205.676 200.061 202.097 199.54C201.901 199.514 201.711 199.449 201.54 199.349C201.369 199.249 201.22 199.115 201.101 198.957C200.982 198.798 200.896 198.617 200.847 198.425C200.799 198.233 200.79 198.033 200.82 197.837C200.846 197.639 200.911 197.449 201.011 197.277C201.111 197.105 201.243 196.954 201.402 196.833C201.56 196.713 201.74 196.624 201.933 196.574C202.125 196.523 202.326 196.511 202.523 196.538H202.672L202.651 196.559Z" fill="#263238"/>
<path d="M283.712 377.829C283.314 368.734 282.447 359.665 281.115 350.659C279.928 341.667 277.874 332.81 274.984 324.213C273.539 319.967 271.558 315.924 269.087 312.182C266.526 308.255 264.614 303.941 263.425 299.406C261.028 290.303 260.86 280.757 262.936 271.575C263.052 271.211 263.3 270.904 263.632 270.714C263.963 270.523 264.353 270.464 264.727 270.546C265.1 270.629 265.428 270.848 265.648 271.16C265.868 271.473 265.964 271.856 265.916 272.236V272.363C263.808 281.031 263.808 290.078 265.916 298.746C266.964 303.074 268.696 307.207 271.046 310.989C273.521 314.918 275.502 319.138 276.942 323.553C279.686 332.323 281.59 341.336 282.626 350.467C283.793 359.54 284.503 368.665 284.755 377.808C284.755 377.927 284.708 378.04 284.624 378.124C284.54 378.208 284.426 378.255 284.308 378.255C284.189 378.255 284.075 378.208 283.992 378.124C283.908 378.04 283.861 377.927 283.861 377.808L283.712 377.829Z" fill="#263238"/>
<path d="M62.4562 417.499C64.058 413.955 64.8645 410.103 64.819 406.213C64.7953 402.282 64.518 398.355 63.9888 394.459C63.5418 390.584 62.7755 386.709 61.8602 382.855C60.9448 379 60.1785 375.125 59.2418 371.314H62.1582C59.7315 380.235 57.4112 389.243 55.5166 398.314C54.58 402.828 53.7073 407.385 53.1751 411.92C53.0474 413.049 52.9196 414.198 52.8558 415.327C52.757 416.445 52.7214 417.569 52.7493 418.691C52.7493 420.821 52.8984 423.333 52.9409 425.654C53.2434 435.037 52.7234 444.427 51.387 453.719C50.6955 458.377 49.5476 462.956 47.9598 467.389C46.4601 471.867 43.8876 475.91 40.4668 479.164C43.6072 475.729 45.8583 471.577 47.0232 467.07C48.3273 462.642 49.211 458.1 49.6627 453.506C50.5356 444.305 50.678 435.048 50.0885 425.825C50.0885 423.482 49.7266 421.268 49.684 418.819C49.6094 417.614 49.6094 416.405 49.684 415.199C49.684 414.007 49.833 412.814 49.9395 411.643C50.4291 406.937 51.1954 402.295 52.0682 397.675C54.0053 388.497 56.3255 379.448 59.1567 370.483L59.3909 369.738C59.5331 369.417 59.7883 369.161 60.1077 369.016C60.4272 368.872 60.7886 368.851 61.1229 368.956C61.4572 369.061 61.741 369.286 61.9202 369.587C62.0994 369.889 62.1614 370.245 62.0943 370.59C62.8819 374.508 63.5844 378.404 64.223 382.344C64.8616 386.283 65.4576 390.222 65.7344 394.247C66.0974 398.232 66.204 402.236 66.0536 406.235C65.9222 410.295 64.9051 414.278 63.0735 417.903C63.0107 418.016 62.9063 418.099 62.7828 418.135C62.6594 418.17 62.5267 418.156 62.4136 418.095C62.3572 418.004 62.331 417.897 62.3387 417.79C62.3463 417.683 62.3874 417.581 62.4562 417.499Z" fill="#263238"/>
<path d="M97.706 168.175C95.7969 169.11 94.0273 170.307 92.4481 171.731C91.618 172.455 90.8729 173.264 90.064 174.031L87.9353 176.565C85.1983 180.128 82.8905 184.002 81.0596 188.106C77.4135 196.447 75.0109 205.278 73.9285 214.318C73.5241 216.447 73.3325 218.832 73.1409 221.11C72.9493 223.389 72.6513 225.667 72.5874 227.945C72.5874 232.545 72.2469 237.059 72.332 241.701C72.3698 250.945 71.9292 260.184 71.0122 269.382C70.578 274.013 69.8672 278.613 68.8835 283.159C67.7979 287.758 66.3717 292.06 65.1796 296.531C62.7103 305.389 60.4113 314.311 58.3465 323.276C56.2817 332.24 54.4297 341.247 53.0673 350.34C51.5109 359.379 50.9683 368.563 51.4495 377.723C51.4583 377.803 51.4508 377.884 51.4275 377.961C51.4042 378.038 51.3655 378.109 51.3137 378.171C51.262 378.233 51.1984 378.283 51.1266 378.32C51.0548 378.356 50.9764 378.378 50.8961 378.383C50.7368 378.39 50.5809 378.337 50.4588 378.234C50.3367 378.132 50.2573 377.987 50.2362 377.829C49.6727 368.579 50.1439 359.294 51.6411 350.148C52.9396 341.013 54.7277 331.942 56.7074 322.914C58.6871 313.885 60.9648 304.963 63.3489 296.042C64.4984 291.591 65.9246 287.12 66.9251 282.733C67.8611 278.263 68.5293 273.741 68.9261 269.191C69.7743 260.053 70.1438 250.877 70.033 241.701C69.884 237.144 70.033 232.438 70.182 227.818C70.182 225.497 70.5013 223.176 70.6503 220.876C70.7993 218.576 71.0122 216.234 71.3954 213.934C72.4499 204.636 74.8521 195.541 78.5265 186.934C80.4218 182.6 82.8226 178.504 85.6789 174.733L87.9779 172.008C88.8506 171.156 89.6596 170.283 90.5536 169.474C92.3828 167.768 94.4474 166.334 96.6842 165.215C97.0515 165.048 97.4698 165.033 97.8484 165.172C98.227 165.312 98.5353 165.595 98.7065 165.96C98.8096 166.147 98.8722 166.353 98.8901 166.565C98.9081 166.777 98.881 166.991 98.8107 167.192C98.7404 167.393 98.6283 167.577 98.482 167.732C98.3356 167.886 98.1582 168.008 97.9614 168.09L97.706 168.175Z" fill="#263238"/>
<path d="M153.137 199.54C149.558 200.066 145.916 199.155 143.005 197.006C140.32 194.819 138.397 191.837 137.513 188.489C136.674 185.293 136.28 181.997 136.342 178.694V174.052C136.172 172.54 136.129 170.986 135.831 169.495C135.365 166.549 134.491 163.682 133.234 160.978C131.985 158.338 129.996 156.118 127.508 154.59C124.971 153.232 122.022 152.861 119.227 153.546C118.497 153.663 117.783 153.863 117.099 154.143C116.372 154.339 115.66 154.588 114.97 154.888C113.588 155.504 112.251 156.216 110.968 157.017C105.785 160.429 101.05 164.478 96.8759 169.069C92.5933 173.509 89.2358 178.757 86.9988 184.507C84.9042 190.273 84.4257 196.503 85.6151 202.521C86.864 208.606 89.0165 214.47 92.0012 219.918C94.9601 225.305 98.5363 230.841 100.516 237.059C102.547 243.262 102.717 249.924 101.006 256.223C98.9495 262.352 95.7092 268.017 91.469 272.896C89.4894 275.387 87.4245 277.772 85.6364 280.284C83.8483 282.797 81.9964 285.437 80.2509 288.035C73.1308 298.455 67.4123 309.767 63.2426 321.679C59.1273 333.553 57.2296 346.083 57.6441 358.644C57.647 358.736 57.6316 358.828 57.5989 358.915C57.5662 359.001 57.5168 359.08 57.4535 359.147C57.3903 359.214 57.3144 359.269 57.2302 359.306C57.146 359.344 57.0552 359.365 56.963 359.368C56.8707 359.371 56.7788 359.355 56.6925 359.323C56.6061 359.29 56.5271 359.241 56.4599 359.177C56.3927 359.114 56.3386 359.038 56.3007 358.954C56.2629 358.87 56.242 358.779 56.2392 358.687C55.7547 345.942 57.6163 333.217 61.7312 321.146C65.8336 309.1 71.502 297.645 78.5905 287.077C80.336 284.437 82.1454 281.818 83.9548 279.262C85.7641 276.707 87.8929 274.216 89.83 271.746C93.8759 267.045 96.9637 261.598 98.9195 255.712C100.509 249.768 100.309 243.486 98.3447 237.655C96.5141 231.757 93.1081 226.561 89.979 220.94C86.8586 215.303 84.5985 209.231 83.2736 202.926C81.9712 196.496 82.4497 189.833 84.6572 183.655C86.9738 177.581 90.4762 172.029 94.9601 167.323C99.2589 162.532 104.152 158.311 109.52 154.76C110.889 153.891 112.311 153.108 113.778 152.418C114.54 152.086 115.322 151.802 116.119 151.566C116.901 151.257 117.715 151.035 118.546 150.906C121.952 150.081 125.543 150.536 128.636 152.184C131.619 153.921 134.025 156.498 135.554 159.594C136.957 162.581 137.938 165.748 138.471 169.005C138.79 170.624 138.832 172.242 139.024 173.86L139.152 178.694C139.101 181.711 139.466 184.72 140.237 187.637C140.943 190.407 142.508 192.882 144.708 194.706C146.959 196.33 149.749 197.024 152.499 196.644H152.648C153.046 196.59 153.449 196.697 153.768 196.941C154.087 197.184 154.297 197.545 154.351 197.943C154.404 198.341 154.298 198.744 154.054 199.064C153.811 199.383 153.45 199.593 153.052 199.647L153.137 199.54Z" fill="#263238"/>
<path d="M70.3535 377.808C70.6053 368.657 71.3158 359.525 72.4822 350.446C73.5387 341.305 75.4632 332.286 78.2297 323.51C79.6776 319.088 81.6652 314.861 84.1474 310.926C86.5103 307.16 88.2566 303.041 89.3202 298.724C91.4171 290.063 91.4171 281.025 89.3202 272.363V272.236C89.2303 271.843 89.2983 271.431 89.5093 271.089C89.7204 270.746 90.0577 270.5 90.4484 270.404C90.6427 270.357 90.8445 270.349 91.0421 270.38C91.2397 270.411 91.4291 270.481 91.5994 270.586C91.7697 270.691 91.9174 270.829 92.0341 270.991C92.1508 271.154 92.234 271.338 92.279 271.533C94.3925 280.713 94.2537 290.269 91.8746 299.385C90.6874 303.917 88.783 308.23 86.2336 312.161C83.774 315.906 81.7998 319.948 80.3584 324.191C77.5057 332.787 75.4813 341.635 74.3129 350.616C73.0018 359.624 72.1563 368.692 71.7797 377.787C71.7743 377.879 71.7507 377.969 71.7103 378.053C71.6699 378.136 71.6135 378.21 71.5442 378.272C71.475 378.333 71.3944 378.38 71.3069 378.41C71.2195 378.44 71.127 378.453 71.0347 378.447C70.8641 378.438 70.702 378.369 70.5774 378.252C70.4527 378.135 70.3734 377.978 70.3535 377.808Z" fill="#263238"/>
<path d="M174.788 359.389C173.627 358.981 172.429 358.689 171.211 358.516C169.915 358.309 168.607 358.189 167.295 358.154C164.628 358.094 161.963 358.344 159.355 358.9C154.035 360.087 148.982 362.253 144.454 365.288C139.848 368.333 135.655 371.962 131.98 376.083C128.382 380.327 125.295 384.98 122.784 389.945C117.71 400.054 113.522 410.584 110.267 421.417C106.875 432.268 104.033 443.284 101.752 454.422C101.692 454.595 101.572 454.741 101.413 454.833C101.255 454.926 101.068 454.958 100.888 454.925C100.708 454.891 100.545 454.794 100.431 454.651C100.316 454.508 100.256 454.328 100.262 454.145C102.251 442.886 104.809 431.735 107.925 420.735C110.924 409.638 114.899 398.829 119.804 388.433C122.289 383.111 125.405 378.107 129.085 373.528C132.883 369.03 137.247 365.043 142.07 361.668C146.964 358.216 152.457 355.703 158.269 354.258C161.218 353.544 164.24 353.18 167.273 353.172C168.811 353.165 170.347 353.264 171.871 353.47C173.479 353.662 175.062 354.018 176.597 354.534C176.914 354.643 177.207 354.814 177.458 355.036C177.71 355.258 177.915 355.528 178.062 355.829C178.21 356.131 178.296 356.459 178.317 356.794C178.337 357.128 178.292 357.464 178.183 357.782C178.074 358.099 177.903 358.392 177.681 358.643C177.459 358.895 177.19 359.1 176.888 359.247C176.587 359.395 176.259 359.481 175.924 359.502C175.59 359.522 175.254 359.477 174.937 359.368L174.788 359.389Z" fill="#263238"/>
<path d="M128.233 225.859C129.429 222.845 130.852 219.927 132.49 217.128C134.165 214.3 136.05 211.602 138.131 209.058C140.208 206.483 142.448 204.043 144.837 201.755C147.261 199.391 149.866 197.219 152.628 195.26L151.84 199.519C150.594 197.936 149.164 196.507 147.583 195.26C145.992 193.987 144.247 192.921 142.388 192.087C138.643 190.4 134.445 189.996 130.447 190.938H130.298C130.058 190.998 129.807 190.992 129.571 190.921C129.335 190.85 129.122 190.716 128.956 190.533C128.167 189.569 127.455 188.544 126.828 187.467C126.195 186.427 125.619 185.354 125.104 184.251C124.094 182.065 123.453 179.727 123.209 177.331C123.931 179.547 125.017 181.627 126.423 183.485C127.081 184.399 127.792 185.273 128.552 186.104C129.318 186.869 130.136 187.58 131 188.233L129.51 187.871C134.163 186.296 139.205 186.296 143.857 187.871C146.176 188.627 148.386 189.679 150.435 191.001C152.531 192.327 154.454 193.908 156.161 195.707L156.331 195.92C156.767 196.494 156.958 197.217 156.863 197.931C156.767 198.646 156.392 199.293 155.821 199.732C155.68 199.836 155.53 199.929 155.374 200.008C152.625 201.414 149.986 203.023 147.476 204.821C144.901 206.646 142.447 208.637 140.132 210.783C137.78 212.934 135.589 215.254 133.576 217.725C131.578 220.287 129.791 223.008 128.233 225.859Z" fill="#263238"/>
<path d="M118.186 197.624C121.545 194.041 125.335 190.887 129.468 188.233C129.809 188.019 130.222 187.949 130.615 188.038C131.008 188.128 131.35 188.371 131.564 188.712C131.779 189.054 131.849 189.467 131.759 189.86C131.669 190.254 131.427 190.595 131.085 190.81L130.809 190.959C126.347 192.662 122.108 194.9 118.186 197.624Z" fill="#263238"/>
<path d="M200.586 145.285C194.907 138.945 190.247 131.761 186.771 123.991C185.913 121.99 185.236 119.917 184.749 117.795C184.42 115.6 184.42 113.368 184.749 111.173C185.425 107.128 185.717 103.029 185.622 98.9289C185.004 90.7523 183.77 82.4053 183.344 74.0583C182.588 65.6241 183.258 57.1228 185.324 48.9108C185.413 48.6998 185.576 48.5287 185.782 48.4298C185.989 48.3308 186.224 48.3109 186.444 48.3738C186.664 48.4368 186.854 48.5781 186.977 48.7712C187.1 48.9643 187.148 49.1958 187.112 49.4219C185.197 57.4276 184.65 65.6997 185.494 73.8879C186.005 82.1711 187.325 90.3477 188.07 98.7586C188.229 103.031 187.979 107.309 187.325 111.535C187.036 113.462 187.036 115.421 187.325 117.348C187.809 119.284 188.45 121.179 189.241 123.012C192.693 130.427 197.259 137.27 202.779 143.304C203.061 143.604 203.213 144.003 203.201 144.414C203.189 144.825 203.014 145.215 202.715 145.498C202.416 145.78 202.017 145.932 201.606 145.92C201.194 145.908 200.805 145.733 200.523 145.434L200.586 145.285Z" fill="#263238"/>
<path d="M185.345 97.9281C187.346 92.477 189.475 87.0827 191.731 81.7452C193.86 76.3793 196.329 71.0985 198.862 65.8391C201.541 60.7974 203.682 55.4873 205.248 49.9968C206.047 47.2593 206.659 44.4705 207.079 41.6498C207.531 38.834 207.631 35.973 207.377 33.1325C207.371 33.0821 207.375 33.031 207.389 32.9823C207.403 32.9335 207.427 32.888 207.458 32.8484C207.49 32.8087 207.529 32.7758 207.574 32.7515C207.618 32.7271 207.667 32.7119 207.718 32.7066C207.814 32.7035 207.909 32.7335 207.986 32.7916C208.064 32.8496 208.119 32.9323 208.143 33.026C209.167 38.8473 208.949 44.8192 207.505 50.5504C206.213 56.292 204.263 61.8652 201.693 67.1593C199.267 72.3761 197.117 77.8059 194.86 83.0441L188.219 99.0354C188.072 99.411 187.782 99.7128 187.413 99.8745C187.043 100.036 186.625 100.045 186.25 99.8978C185.874 99.751 185.572 99.461 185.411 99.0916C185.249 98.7222 185.241 98.3037 185.388 97.9281H185.345Z" fill="#263238"/>
<path d="M189.113 15.7145C195.819 15.7145 206.888 23.593 207.973 34.8785" stroke="#263238" stroke-width="0.5" stroke-linecap="round" stroke-linejoin="round"/>
<path d="M190.262 33.0899C190.262 33.0899 200.905 29.1719 207.845 33.9416" stroke="#263238" stroke-width="0.5" stroke-linecap="round" stroke-linejoin="round"/>
<path d="M182.855 21.9109C182.855 21.9109 197.884 19.7815 206.271 28.4905" stroke="#263238" stroke-width="0.5" stroke-linecap="round" stroke-linejoin="round"/>
<path d="M132.916 157.571C141.46 152.143 149.138 145.46 155.693 137.747C158.906 133.935 161.467 129.618 163.272 124.971C163.612 123.8 164.08 122.65 164.315 121.479L164.868 117.901C165.081 115.261 165.464 112.684 165.826 110.129C166.188 107.574 166.528 105.061 166.805 102.528C167.082 99.9936 167.231 97.4384 167.593 94.8193C168.253 89.6663 169.126 84.6198 169.722 79.5307C170.429 74.4861 170.799 69.3998 170.828 64.3059C170.909 59.2179 170.242 54.1456 168.849 49.2515C168.829 49.1928 168.821 49.1308 168.825 49.0689C168.829 49.007 168.846 48.9466 168.873 48.8912C168.901 48.8357 168.939 48.7863 168.986 48.7458C169.033 48.7053 169.088 48.6746 169.147 48.6553C169.263 48.624 169.386 48.6345 169.495 48.6852C169.604 48.7358 169.692 48.8233 169.743 48.9322C173.425 58.791 173.191 69.5654 172.255 79.8075C171.765 84.9605 171.02 90.0922 170.488 95.16L169.849 102.847C169.594 105.423 169.275 108 168.934 110.555C168.593 113.11 168.274 115.623 168.104 118.136C167.933 119.456 167.721 120.819 167.508 122.181C167.295 123.544 166.763 124.779 166.401 126.099C164.484 131.086 161.742 135.714 158.29 139.791C151.485 147.79 143.443 154.648 134.47 160.105C134.299 160.214 134.107 160.288 133.907 160.323C133.707 160.357 133.502 160.351 133.304 160.306C133.105 160.26 132.918 160.176 132.753 160.057C132.588 159.938 132.448 159.788 132.342 159.615C132.232 159.445 132.156 159.254 132.12 159.055C132.084 158.855 132.088 158.651 132.132 158.453C132.175 158.255 132.257 158.067 132.374 157.901C132.49 157.735 132.639 157.594 132.81 157.486L132.916 157.571Z" fill="#263238"/>
<path d="M167.315 98.8438C165.974 92.4558 164.462 85.9187 162.781 79.5094C161.95 76.2941 161.056 73.1214 160.077 69.9487C159.124 66.7749 157.965 63.6666 156.607 60.6435C158.233 63.5586 159.655 66.5823 160.865 69.6932C162.099 72.7878 163.256 75.9108 164.335 79.0622C166.463 85.4502 168.486 91.7105 170.359 98.2263C170.471 98.6159 170.424 99.0341 170.228 99.3892C170.033 99.7444 169.705 100.008 169.316 100.121C169.124 100.177 168.924 100.193 168.726 100.171C168.528 100.148 168.336 100.086 168.162 99.9895C167.988 99.8925 167.835 99.762 167.711 99.6056C167.588 99.4492 167.496 99.2699 167.442 99.078L167.315 98.8438Z" fill="#263238"/>
<path d="M143.324 788.663C134.405 741.243 133.66 692.971 136.299 645.21C137.747 621.617 134.703 597.96 130.381 574.58C126.06 551.2 120.76 527.735 118.759 503.758C117.695 491.751 117.695 479.673 118.759 467.666C119.998 455.589 122.84 443.731 127.21 432.404C136.065 409.937 149.201 389.406 165.888 371.952C169.722 367.617 172.744 362.625 174.807 357.217C175.835 354.545 176.598 351.777 177.085 348.956C177.56 346.213 177.653 343.419 177.362 340.651C176.565 335.013 174.861 329.541 172.317 324.447C169.89 319.145 167.08 313.8 164.866 308.03C162.737 302.193 161.308 296.125 160.609 289.952C159.822 283.846 159.587 277.681 159.906 271.533C160.482 259.292 163.206 247.248 167.953 235.952L167.825 236.484C167.825 234.355 167.676 231.97 167.506 229.734C167.336 227.498 167.208 225.262 166.931 223.048C166.654 220.833 166.378 218.64 165.909 216.532C165.55 214.494 164.927 212.512 164.057 210.634C163.068 208.819 161.852 207.138 160.439 205.63C158.973 203.99 157.424 202.426 155.798 200.945C152.52 197.943 149.008 195.047 145.474 192.279C145.166 192.025 144.968 191.662 144.92 191.265C144.873 190.869 144.979 190.469 145.218 190.15C145.442 189.864 145.76 189.668 146.116 189.598C146.471 189.527 146.84 189.587 147.156 189.766C151.257 192.016 155.147 194.631 158.778 197.581C162.705 200.53 166.017 204.22 168.528 208.441C169.587 210.723 170.338 213.136 170.763 215.617C171.199 217.951 171.469 220.313 171.572 222.686C171.86 227.358 171.731 232.047 171.189 236.697C171.203 236.846 171.203 236.995 171.189 237.144C169.56 242.726 168.343 248.419 167.548 254.179C166.713 259.949 166.258 265.767 166.186 271.597C166.124 277.387 166.501 283.175 167.314 288.908C168.08 294.582 169.428 300.162 171.338 305.56C173.338 310.926 175.872 316.313 178.085 321.998C180.482 327.788 181.92 333.93 182.343 340.183C182.47 343.376 182.154 346.572 181.406 349.679C180.659 352.698 179.655 355.648 178.405 358.495C175.963 364.162 172.62 369.397 168.506 373.997C160.387 382.642 153.07 392.007 146.645 401.976C140.223 411.897 134.865 422.467 130.658 433.511C126.463 444.538 123.75 456.074 122.59 467.815C121.548 479.596 121.548 491.445 122.59 503.226C124.719 526.862 130.041 550.071 134.575 573.6C139.109 597.13 142.472 621.085 141.217 645.253C139.971 669.008 140.014 692.813 141.344 716.564C142.585 740.251 145.559 763.814 150.242 787.066C150.336 787.514 150.34 787.975 150.256 788.424C150.171 788.874 149.999 789.302 149.749 789.684C149.499 790.067 149.176 790.396 148.798 790.654C148.421 790.912 147.997 791.093 147.549 791.187C147.102 791.28 146.641 791.285 146.192 791.2C145.743 791.116 145.315 790.943 144.932 790.693C144.55 790.443 144.22 790.12 143.963 789.742C143.705 789.365 143.524 788.94 143.43 788.493L143.324 788.663Z" fill="#263238"/>
<path d="M155.415 387.688C157.132 390.954 158.406 394.434 159.204 398.037C160.046 401.528 160.538 405.094 160.673 408.683C160.798 412.286 160.592 415.893 160.056 419.458C159.864 421.246 159.396 422.993 159.055 424.739C158.714 426.485 158.076 428.188 157.608 429.913C157.563 430.067 157.46 430.197 157.321 430.276C157.182 430.356 157.018 430.378 156.863 430.339C156.713 430.294 156.587 430.195 156.508 430.06C156.429 429.926 156.403 429.767 156.437 429.615C156.82 427.911 157.31 426.229 157.629 424.504C157.948 422.78 158.267 421.055 158.374 419.309C158.76 415.844 158.817 412.35 158.544 408.875C158.261 405.423 157.641 402.007 156.692 398.676C155.806 395.386 154.504 392.224 152.818 389.264V389.157C152.687 388.985 152.594 388.788 152.544 388.577C152.495 388.366 152.491 388.148 152.532 387.935C152.573 387.723 152.659 387.522 152.783 387.345C152.908 387.168 153.068 387.019 153.254 386.909C153.44 386.799 153.648 386.729 153.862 386.704C154.077 386.68 154.295 386.701 154.501 386.766C154.707 386.832 154.897 386.94 155.058 387.085C155.219 387.229 155.348 387.405 155.436 387.603L155.415 387.688Z" fill="#263238"/>
<path d="M132.127 425.122C132.127 425.122 162.312 476.971 152.711 548.474C143.111 619.977 167.463 659.008 151.072 704.704C144.686 722.633 150.583 751.868 151.583 765.368C153.137 786.257 142.707 809.744 142.707 809.744" stroke="#263238" stroke-width="1.43" stroke-linecap="round" stroke-linejoin="round"/>
<path d="M176.554 360.454C185.367 364.515 193.316 370.233 199.97 377.297C206.609 384.121 212.497 391.638 217.532 399.719C227.682 415.758 234.971 433.439 239.074 451.973C240.053 456.615 240.812 461.299 241.352 466.026C241.863 470.775 242.054 475.459 242.203 480.186C242.353 489.601 241.927 499.016 240.926 508.379C238.946 527.074 235.093 545.387 231.432 563.614C227.479 581.721 224.699 600.064 223.109 618.529C222.455 627.742 222.356 636.986 222.811 646.211C223.194 655.559 223.492 664.928 223.194 674.275C222.896 683.623 222.47 692.971 221.597 702.276C220.725 711.581 219.575 720.865 218.128 730.085C215.296 748.547 211.252 766.795 207.484 784.98C207.402 785.373 207.168 785.719 206.834 785.942C206.5 786.165 206.091 786.248 205.696 786.172C205.5 786.134 205.313 786.057 205.147 785.946C204.98 785.836 204.838 785.693 204.727 785.527C204.616 785.36 204.539 785.173 204.501 784.977C204.463 784.781 204.464 784.579 204.504 784.383C208.208 766.092 212.103 747.929 214.807 729.574C216.191 720.397 217.297 711.198 218.064 701.893C218.83 692.588 219.341 683.389 219.469 674.212C219.596 665.034 219.469 655.686 218.915 646.53C218.386 637.153 218.422 627.753 219.022 618.38C220.498 599.724 223.171 581.182 227.026 562.869C230.559 544.578 234.263 526.372 236.072 508.017C237.001 498.856 237.356 489.647 237.137 480.442C236.967 475.864 236.754 471.243 236.221 466.729C235.689 462.215 234.923 457.701 233.944 453.25C229.85 435.368 222.691 418.33 212.785 402.892C207.885 395.206 202.176 388.067 195.755 381.598C189.584 375.137 182.227 369.924 174.085 366.246C173.685 366.115 173.317 365.903 173.004 365.623C172.69 365.343 172.438 365.001 172.263 364.619C172.088 364.237 171.994 363.822 171.987 363.402C171.98 362.982 172.06 362.564 172.222 362.176C172.384 361.789 172.625 361.438 172.929 361.148C173.233 360.858 173.594 360.634 173.989 360.49C174.384 360.346 174.805 360.286 175.224 360.313C175.644 360.339 176.053 360.453 176.427 360.646L176.554 360.454Z" fill="#263238"/>
<path d="M206.803 389.2C205.083 392.141 203.745 395.289 202.822 398.569C201.827 401.909 201.171 405.34 200.864 408.811C200.534 412.295 200.534 415.803 200.864 419.287C200.864 421.055 201.332 422.78 201.567 424.526C201.801 426.272 202.354 427.954 202.716 429.679C202.723 429.724 202.715 429.77 202.691 429.809C202.668 429.848 202.631 429.877 202.588 429.892C202.543 429.899 202.497 429.89 202.458 429.867C202.419 429.843 202.39 429.807 202.375 429.764C201.886 428.06 201.311 426.378 200.907 424.632C200.502 422.886 200.055 421.183 199.842 419.394C199.264 415.876 199.021 412.311 199.119 408.747C199.22 405.163 199.669 401.598 200.46 398.101C201.234 394.499 202.471 391.013 204.142 387.731C204.236 387.545 204.367 387.381 204.526 387.247C204.685 387.114 204.87 387.014 205.069 386.954C205.269 386.894 205.478 386.876 205.684 386.9C205.891 386.923 206.09 386.989 206.271 387.092C206.459 387.183 206.625 387.313 206.761 387.472C206.896 387.631 206.997 387.817 207.057 388.017C207.117 388.217 207.135 388.427 207.109 388.634C207.084 388.842 207.016 389.042 206.91 389.221L206.803 389.2Z" fill="#263238"/>
<path d="M227.515 425.122C227.515 425.122 197.309 476.971 206.931 548.474C216.552 619.977 192.158 659.008 208.57 704.704C214.956 722.633 206.633 750.591 205.632 764.091C204.078 784.98 214.509 808.466 214.509 808.466" stroke="#263238" stroke-width="1.43" stroke-linecap="round" stroke-linejoin="round"/>
<path d="M159.525 201.371C163.718 192.699 166.999 183.615 169.317 174.265C169.891 171.944 170.36 169.602 170.743 167.238L171.105 165.279C171.252 164.558 171.444 163.847 171.679 163.15C172.155 161.778 172.768 160.458 173.51 159.21C176.433 154.587 180.484 150.784 185.282 148.159C189.8 145.567 194.668 143.637 199.736 142.431C204.742 141.202 209.887 140.636 215.041 140.749C220.234 140.838 225.372 141.84 230.218 143.709C235.132 145.611 239.446 148.795 242.714 152.929C242.84 153.084 242.934 153.263 242.99 153.455C243.045 153.648 243.062 153.849 243.038 154.048C243.014 154.246 242.95 154.438 242.851 154.612C242.751 154.786 242.618 154.937 242.458 155.058C242.143 155.305 241.744 155.418 241.346 155.375C240.949 155.331 240.584 155.133 240.33 154.824C237.273 151.288 233.326 148.634 228.899 147.137C224.428 145.609 219.721 144.888 214.998 145.008C205.503 145.16 196.223 147.867 188.134 152.844C184.292 155.128 181.086 158.343 178.81 162.191C178.327 163.094 177.934 164.043 177.64 165.023C177.491 165.513 177.406 166.003 177.299 166.493L177.065 168.175C176.724 170.709 176.299 173.243 175.766 175.734C173.614 185.651 170.424 195.315 166.251 204.565C166.06 205.03 165.778 205.451 165.422 205.805C165.065 206.158 164.641 206.436 164.174 206.622C163.708 206.808 163.209 206.899 162.707 206.888C162.205 206.878 161.71 206.767 161.252 206.561C160.794 206.355 160.382 206.06 160.04 205.692C159.699 205.324 159.434 204.891 159.263 204.419C159.092 203.946 159.018 203.445 159.044 202.943C159.071 202.442 159.198 201.95 159.418 201.499L159.525 201.371Z" fill="#263238"/>
<path d="M240.946 209.697C234.868 210.576 228.873 211.958 223.022 213.828C220.099 214.728 217.251 215.86 214.508 217.214C211.842 218.457 209.392 220.117 207.249 222.132C206.959 222.374 206.59 222.499 206.213 222.481C205.836 222.464 205.479 222.307 205.212 222.04C204.945 221.773 204.788 221.416 204.771 221.039C204.754 220.662 204.879 220.293 205.12 220.003C207.611 217.908 210.421 216.225 213.443 215.02C216.34 213.792 219.33 212.795 222.384 212.039C228.418 210.503 234.57 209.47 240.776 208.952C240.829 208.946 240.883 208.951 240.934 208.966C240.985 208.981 241.033 209.006 241.075 209.039C241.116 209.073 241.151 209.115 241.176 209.162C241.202 209.209 241.217 209.26 241.223 209.314C241.232 209.366 241.23 209.419 241.218 209.47C241.205 209.522 241.182 209.57 241.15 209.612C241.118 209.654 241.078 209.689 241.032 209.714C240.986 209.74 240.935 209.756 240.882 209.761L240.946 209.697Z" fill="#263238"/>
<path d="M222.172 212.678C223.443 213.206 224.627 213.924 225.684 214.807C226.71 215.647 227.594 216.646 228.302 217.767C229.014 218.863 229.513 220.084 229.771 221.366C230.046 222.602 230.132 223.873 230.026 225.135C229.944 223.898 229.686 222.679 229.26 221.515C228.861 220.372 228.247 219.317 227.451 218.406C226.683 217.495 225.769 216.718 224.747 216.106C223.771 215.507 222.709 215.062 221.597 214.786C221.323 214.72 221.087 214.549 220.94 214.31C220.792 214.07 220.745 213.782 220.809 213.508C220.839 213.372 220.896 213.242 220.977 213.128C221.058 213.014 221.161 212.917 221.281 212.843C221.4 212.77 221.533 212.721 221.671 212.7C221.81 212.679 221.951 212.686 222.086 212.721L222.172 212.678Z" fill="#263238"/>
<path d="M222.768 197.922C221.332 200.403 220.304 203.099 219.724 205.907C219.115 208.704 218.815 211.561 218.83 214.424C218.856 214.639 218.835 214.857 218.77 215.064C218.705 215.27 218.598 215.461 218.454 215.623C218.31 215.785 218.134 215.914 217.936 216.003C217.739 216.092 217.525 216.138 217.308 216.138C217.092 216.138 216.878 216.092 216.68 216.003C216.483 215.914 216.306 215.785 216.162 215.623C216.019 215.461 215.911 215.27 215.846 215.064C215.781 214.857 215.761 214.639 215.786 214.424V214.19C216.229 211.211 216.978 208.285 218.021 205.46C219.012 202.643 220.45 200.004 222.279 197.645C222.332 197.6 222.4 197.575 222.47 197.575C222.54 197.575 222.608 197.6 222.662 197.645C222.7 197.694 222.72 197.754 222.72 197.815C222.72 197.877 222.7 197.937 222.662 197.986L222.768 197.922Z" fill="#263238"/>
<path d="M163.506 286.396C157.166 287.391 150.9 288.814 144.752 290.654C141.682 291.567 138.675 292.677 135.748 293.976C132.825 295.213 130.082 296.838 127.595 298.81C127.535 298.874 127.462 298.926 127.382 298.961C127.301 298.996 127.214 299.014 127.126 299.014C127.038 299.014 126.951 298.996 126.871 298.961C126.79 298.926 126.718 298.874 126.658 298.81C126.597 298.75 126.548 298.679 126.515 298.6C126.482 298.522 126.465 298.437 126.465 298.352C126.465 298.267 126.482 298.182 126.515 298.103C126.548 298.025 126.597 297.954 126.658 297.894C129.158 295.714 131.944 293.888 134.939 292.464C137.886 291.005 140.922 289.732 144.028 288.653C147.094 287.545 150.223 286.523 153.373 285.714C156.524 284.905 159.759 284.053 162.952 283.393C163.148 283.354 163.349 283.354 163.545 283.393C163.741 283.431 163.927 283.508 164.093 283.619C164.259 283.73 164.402 283.872 164.513 284.038C164.624 284.204 164.701 284.39 164.74 284.586C164.78 284.781 164.78 284.983 164.741 285.179C164.702 285.375 164.625 285.561 164.515 285.727C164.404 285.893 164.262 286.036 164.096 286.147C163.93 286.258 163.744 286.335 163.548 286.374L163.506 286.396Z" fill="#263238"/>
<path d="M130 278.07C132.239 280.303 134.684 282.321 137.301 284.096C139.743 285.849 142.542 287.041 145.497 287.588C145.696 287.612 145.888 287.675 146.063 287.773C146.237 287.872 146.391 288.005 146.513 288.163C146.636 288.322 146.726 288.503 146.778 288.697C146.83 288.891 146.843 289.093 146.817 289.292C146.758 289.693 146.546 290.056 146.223 290.303C145.901 290.55 145.495 290.66 145.092 290.612H144.858C141.664 289.505 138.755 287.701 136.343 285.331C134.004 283.117 131.88 280.686 130 278.07Z" fill="#263238"/>
<path d="M179.747 336.584C179.747 336.584 150.18 342.12 143.453 347.827" stroke="#263238" stroke-width="1.43" stroke-linecap="round" stroke-linejoin="round"/>
<path d="M155.629 342.44C153.396 345.444 151.967 348.97 151.479 352.682" stroke="#263238" stroke-width="1.43" stroke-linecap="round" stroke-linejoin="round"/>
<path d="M132.127 347.231C136.271 345.46 140.918 345.263 145.197 346.677" stroke="#263238" stroke-width="1.43" stroke-linecap="round" stroke-linejoin="round"/>
<path d="M151.479 343.824C151.479 343.824 146.753 339.565 136.748 339.565" stroke="#263238" stroke-width="1.43" stroke-linecap="round" stroke-linejoin="round"/>
<path d="M114.246 405.596C113.819 439.653 120.443 473.43 133.702 504.802C155.755 557.013 110.457 624.428 123.932 685.795" stroke="#263238" stroke-width="1.43" stroke-linecap="round" stroke-linejoin="round"/>
<path d="M160.609 232.779C156.806 232.153 152.966 231.776 149.114 231.65C141.327 231.373 133.533 231.879 125.847 233.162C121.994 233.758 118.205 234.653 114.416 235.632C114.171 235.692 113.912 235.654 113.694 235.527C113.476 235.4 113.315 235.194 113.246 234.951C113.187 234.708 113.225 234.452 113.353 234.238C113.48 234.023 113.686 233.866 113.927 233.801C117.731 232.679 121.588 231.748 125.485 231.012C129.385 230.256 133.322 229.701 137.278 229.351C141.242 228.999 145.221 228.85 149.199 228.904C153.21 228.928 157.214 229.227 161.184 229.798C161.582 229.857 161.94 230.072 162.179 230.396C162.419 230.719 162.52 231.125 162.461 231.523C162.402 231.921 162.187 232.279 161.863 232.519C161.54 232.758 161.135 232.86 160.737 232.8H160.63L160.609 232.779Z" fill="#263238"/>
<path d="M127.871 233.78C126.742 235.571 125.732 237.435 124.848 239.359C123.942 241.297 123.153 243.288 122.485 245.321C121.827 247.347 121.315 249.418 120.953 251.517C120.601 253.628 120.43 255.765 120.442 257.905C120.442 258.069 120.377 258.226 120.261 258.342C120.145 258.458 119.988 258.523 119.824 258.523C119.662 258.517 119.508 258.451 119.394 258.336C119.279 258.221 119.212 258.067 119.207 257.905C119.115 255.693 119.215 253.478 119.505 251.283C119.798 249.121 120.261 246.985 120.889 244.895C121.458 242.77 122.17 240.686 123.017 238.656C123.878 236.598 124.873 234.599 125.998 232.672C126.143 232.434 126.376 232.263 126.647 232.195C126.918 232.128 127.204 232.169 127.445 232.311C127.687 232.453 127.862 232.685 127.934 232.956C128.006 233.227 127.968 233.515 127.828 233.758L127.871 233.78Z" fill="#263238"/>
<path d="M133.703 245.555C130.411 243.431 126.611 242.226 122.697 242.063" stroke="#263238" stroke-width="0.5" stroke-linecap="round" stroke-linejoin="round"/>
<path d="M112.799 255.158C112.799 255.158 114.502 252.773 120.164 251.794" stroke="#263238" stroke-width="0.5" stroke-linecap="round" stroke-linejoin="round"/>
<path d="M184.046 185.955C184.299 181.409 185.012 176.9 186.175 172.497C187.328 168.066 189.06 163.806 191.326 159.828C193.652 155.719 196.866 152.184 200.735 149.479C204.716 146.789 209.349 145.222 214.146 144.944C218.802 144.589 223.482 145.191 227.897 146.711C232.261 148.237 236.324 150.514 239.903 153.44C246.758 159.328 252.411 166.486 256.55 174.52C260.728 182.357 264.122 190.588 266.682 199.093C269.322 207.866 269.279 216.958 268.938 225.731C268.768 230.117 268.449 234.482 268.385 238.784C268.312 240.917 268.405 243.053 268.662 245.172C268.76 247.015 269.422 248.784 270.556 250.24C272.225 251.987 273.515 254.06 274.345 256.329C275.15 258.453 275.804 260.63 276.304 262.845C277.237 267.191 277.877 271.594 278.22 276.026C278.897 284.81 279.053 293.627 278.688 302.43C278.191 311.046 279.354 319.677 282.115 327.854C283.435 331.963 285.074 335.988 286.607 340.119C288.382 344.282 289.384 348.734 289.566 353.257C289.718 357.578 290.124 361.887 290.779 366.161C291.375 370.419 292.077 374.806 292.78 379.107C294.206 387.624 295.739 396.355 297.037 405.021C297.676 409.28 298.314 413.709 298.698 418.116C298.919 420.338 298.99 422.572 298.911 424.802C298.84 425.928 298.676 427.047 298.421 428.146L297.825 431.382C296.313 439.899 294.334 448.566 294.568 457.211C294.802 465.856 297.059 474.395 298.825 482.933C298.837 483.092 298.791 483.25 298.696 483.377C298.6 483.504 298.462 483.593 298.307 483.627C298.152 483.66 297.989 483.637 297.85 483.56C297.71 483.484 297.603 483.359 297.548 483.21C296.569 478.951 295.59 474.693 294.717 470.434C293.788 466.116 293.212 461.729 292.993 457.317C292.716 448.396 294.632 439.729 296.079 431.127L296.654 427.89C296.891 426.861 297.04 425.814 297.101 424.76C297.155 422.627 297.062 420.492 296.824 418.372C296.42 414.113 295.76 409.855 295.079 405.426C293.695 396.802 292.077 388.199 290.587 379.575C289.842 375.317 289.097 370.93 288.459 366.586C287.754 362.215 287.299 357.807 287.096 353.385C286.9 349.145 285.919 344.979 284.201 341.098C282.647 337.031 280.944 332.964 279.561 328.748C276.646 320.259 275.396 311.286 275.878 302.323C276.152 293.637 275.924 284.942 275.197 276.281C274.816 271.985 274.162 267.718 273.239 263.505C272.217 259.438 270.94 255.158 268.257 252.497C267.29 251.544 266.56 250.377 266.129 249.09C265.734 247.957 265.456 246.787 265.298 245.598C265.022 243.344 264.901 241.075 264.937 238.805C264.937 234.355 265.256 229.99 265.405 225.646C265.682 216.979 265.596 208.249 263.085 200.094C260.54 191.845 257.182 183.871 253.058 176.288C249.108 168.738 243.737 162.021 237.242 156.506C230.864 151.262 222.725 148.65 214.487 149.203C210.474 149.465 206.606 150.804 203.29 153.078C199.971 155.438 197.228 158.517 195.265 162.085C191.291 169.498 189.015 177.703 188.602 186.104V186.232C188.565 186.847 188.285 187.423 187.824 187.832C187.363 188.242 186.758 188.451 186.143 188.414C185.528 188.378 184.952 188.098 184.543 187.637C184.134 187.175 183.924 186.57 183.961 185.955H184.046Z" fill="#267AFF"/>
<path d="M268.96 249.09C267.037 252.229 265.554 255.618 264.553 259.161C263.486 262.783 262.717 266.486 262.254 270.234C261.782 274.005 261.554 277.804 261.573 281.605C261.573 283.5 261.701 285.416 261.743 287.333L262.212 293.039L261.36 287.354C261.19 285.459 260.935 283.542 260.828 281.626C260.583 277.783 260.583 273.928 260.828 270.085C261.05 266.207 261.592 262.354 262.446 258.565C263.266 254.665 264.635 250.902 266.512 247.386C266.613 247.208 266.749 247.052 266.911 246.927C267.073 246.801 267.259 246.709 267.457 246.656C267.654 246.602 267.861 246.588 268.064 246.615C268.267 246.642 268.463 246.709 268.64 246.811C268.821 246.911 268.979 247.045 269.106 247.207C269.233 247.369 269.326 247.555 269.38 247.754C269.433 247.953 269.446 248.16 269.418 248.364C269.39 248.568 269.321 248.764 269.215 248.941L268.96 249.09Z" fill="#267AFF"/>
<path d="M194.477 157.379C192.289 152.781 190.426 148.035 188.9 143.177C187.291 138.316 186.088 133.331 185.303 128.271C184.436 123.165 184.25 117.967 184.749 112.812C185.162 107.441 187.039 102.285 190.178 97.9069L191.455 96.3311L192.647 94.9258C193.477 94.0102 194.243 93.052 194.988 92.0725C196.521 90.1561 197.926 88.1545 199.246 86.1103C201.923 81.9809 204.211 77.6111 206.079 73.0575C207.996 68.5527 209.369 63.8347 210.166 59.0039C210.92 54.0641 210.92 49.0384 210.166 44.0985C211.876 48.9162 212.6 54.0285 212.295 59.1316C211.92 64.2417 210.779 69.2664 208.91 74.037C207.073 78.8119 204.778 83.3972 202.056 87.7286C200.672 89.858 199.246 91.9873 197.671 94.1166C196.904 95.1387 196.117 96.246 195.286 97.119L194.073 98.5882L193.009 99.951C190.367 103.863 188.77 108.386 188.368 113.089C187.905 117.923 188.069 122.798 188.858 127.59C190.482 137.329 193.292 146.832 197.224 155.889C197.374 156.262 197.374 156.679 197.223 157.053C197.072 157.426 196.782 157.726 196.415 157.89C196.085 158.056 195.706 158.096 195.349 158.002C194.992 157.908 194.682 157.686 194.477 157.379Z" fill="#267AFF"/>
<path d="M198.012 49.2941C196.266 53.031 194.896 56.9328 193.925 60.9416C192.917 64.9229 192.255 68.9837 191.945 73.0788C191.572 77.1444 191.572 81.2356 191.945 85.3012C192.311 89.3297 193.023 93.3192 194.074 97.2255C194.125 97.4184 194.137 97.6196 194.11 97.8174C194.084 98.0153 194.018 98.2058 193.917 98.378C193.816 98.5503 193.682 98.7008 193.522 98.8209C193.363 98.9411 193.181 99.0284 192.988 99.078C192.596 99.1692 192.184 99.1048 191.839 98.8983C191.493 98.6917 191.241 98.3593 191.136 97.9707C190.255 93.8437 189.742 89.6467 189.603 85.429C189.439 81.244 189.66 77.0529 190.263 72.9085C190.819 68.7808 191.745 64.7115 193.031 60.7499C194.298 56.7722 195.967 52.9338 198.012 49.2941Z" fill="#267AFF"/>
<path d="M289.865 347.231C296.251 369.674 302.637 392.16 308.746 414.752C310.236 420.395 311.726 426.037 313.131 431.787C314.536 437.536 315.835 443.2 316.835 448.949C318.874 460.457 321.597 471.834 324.988 483.018C325.008 483.08 325.015 483.145 325.01 483.209C325.005 483.274 324.987 483.336 324.957 483.394C324.927 483.451 324.886 483.502 324.837 483.544C324.788 483.585 324.73 483.617 324.669 483.636C324.607 483.656 324.542 483.663 324.478 483.658C324.414 483.653 324.351 483.635 324.294 483.605C324.236 483.575 324.185 483.534 324.144 483.485C324.102 483.436 324.071 483.378 324.051 483.317C320.479 472.144 317.579 460.767 315.366 449.247C314.281 443.498 312.918 437.877 311.407 432.213C309.896 426.549 308.384 420.948 306.809 415.327C300.423 392.862 293.739 370.483 286.948 348.146C286.83 347.762 286.869 347.347 287.056 346.992C287.244 346.636 287.565 346.37 287.949 346.251C288.333 346.133 288.748 346.171 289.103 346.359C289.459 346.547 289.725 346.868 289.843 347.252L289.865 347.231Z" fill="#267AFF"/>
<path d="M294.463 446.671C296.592 452.399 311.663 453.378 315.579 446.224" stroke="#267AFF" stroke-width="1.43" stroke-linecap="round" stroke-linejoin="round"/>
<path d="M308.34 410.067C311.108 412.602 313.711 415.312 316.131 418.18C317.339 419.678 318.462 421.242 319.495 422.865C320.079 423.783 320.53 424.78 320.836 425.825L321.006 426.442C321.039 426.617 321.089 426.788 321.155 426.953C321.286 427.336 321.45 427.706 321.645 428.06C323.433 431.129 325.713 433.885 328.392 436.216C331.051 438.723 334.146 440.722 337.525 442.114C333.812 441.338 330.316 439.753 327.286 437.472C325.717 436.401 324.256 435.182 322.922 433.831C321.513 432.472 320.263 430.958 319.197 429.317C318.922 428.943 318.673 428.552 318.451 428.146C318.329 427.883 318.222 427.612 318.132 427.336C318.132 427.06 317.941 426.719 317.898 426.634C317.636 425.915 317.278 425.234 316.834 424.611C315.825 423.123 314.723 421.7 313.534 420.352C311.235 417.584 308.681 414.901 306.233 412.218C305.971 411.919 305.836 411.529 305.855 411.132C305.875 410.735 306.049 410.361 306.339 410.089C306.613 409.842 306.967 409.703 307.336 409.699C307.704 409.696 308.061 409.826 308.34 410.067Z" fill="#267AFF"/>
<path d="M302.444 450.908C302.444 454.123 302.444 457.424 302.699 460.682C302.955 463.94 303.232 467.219 303.657 470.477C304.479 477.021 306.043 483.45 308.319 489.641C308.339 489.712 308.331 489.788 308.298 489.854C308.264 489.92 308.208 489.971 308.139 489.997C308.07 490.024 307.993 490.024 307.925 489.997C307.856 489.971 307.799 489.92 307.766 489.854C305.099 483.755 303.121 477.377 301.869 470.839C301.231 467.581 300.698 464.28 300.273 460.98C299.847 457.679 299.57 454.358 299.421 450.972C299.413 450.773 299.444 450.575 299.512 450.389C299.58 450.202 299.684 450.031 299.819 449.884C299.953 449.738 300.115 449.62 300.295 449.536C300.475 449.452 300.67 449.405 300.869 449.396C301.067 449.388 301.265 449.419 301.452 449.487C301.639 449.555 301.81 449.659 301.956 449.794C302.102 449.928 302.221 450.09 302.305 450.271C302.388 450.451 302.436 450.646 302.444 450.844V450.908Z" fill="#267AFF"/>
<path d="M316.707 490.897C314.168 484.533 312.07 478.002 310.428 471.35C308.704 464.669 307.628 457.838 307.213 450.951C307.191 450.55 307.328 450.156 307.596 449.857C307.863 449.557 308.239 449.376 308.64 449.354C309.04 449.331 309.434 449.469 309.733 449.736C310.033 450.004 310.214 450.379 310.236 450.78C310.403 457.499 311.208 464.187 312.641 470.754C314.032 477.371 315.867 483.887 318.134 490.258C318.167 490.353 318.182 490.454 318.177 490.555C318.171 490.656 318.146 490.754 318.103 490.845C318.059 490.936 317.998 491.018 317.923 491.085C317.848 491.152 317.76 491.204 317.665 491.238C317.492 491.308 317.298 491.312 317.122 491.249C316.945 491.186 316.798 491.061 316.707 490.897Z" fill="#267AFF"/>
<path d="M176.916 190.618C174.522 182.249 170.937 174.267 166.272 166.919C161.547 159.721 155.31 153.227 147.391 150.395C145.44 149.69 143.409 149.225 141.346 149.011C139.256 148.841 137.156 148.841 135.066 149.011C130.867 149.506 126.807 150.831 123.124 152.908L121.719 153.653C121.272 153.93 120.846 154.249 120.42 154.547L117.802 156.4C116.141 157.767 114.563 159.231 113.077 160.786C110.075 163.937 107.381 167.366 105.03 171.028C100.389 178.504 96.5979 186.474 93.7267 194.792C92.9603 196.921 92.2792 199.05 91.598 201.052C90.9893 203.145 90.534 205.28 90.2356 207.44C89.6374 211.785 89.3812 216.171 89.4693 220.557C89.4693 224.964 89.746 229.393 89.9163 233.865C90.2862 238.464 90.086 243.092 89.3203 247.642C89.027 248.889 88.5384 250.082 87.8728 251.176C87.4896 251.728 87.0625 252.248 86.5956 252.731C86.2976 253.093 85.9782 253.434 85.6802 253.817C84.5417 255.556 83.6397 257.439 82.9981 259.417C81.7368 263.587 80.8604 267.863 80.3798 272.193C79.3852 281 78.9869 289.864 79.1877 298.724C79.407 303.23 79.3715 307.744 79.0813 312.246C78.6283 316.768 77.7517 321.238 76.463 325.597C75.2071 329.962 73.568 334.114 71.9502 338.373C70.205 342.368 68.9402 346.557 68.1824 350.851C68.0121 352.831 68.0334 355.28 67.7992 357.494C67.5651 359.709 67.3309 361.987 67.0329 364.202C66.4156 368.652 65.7131 373.06 64.9042 377.467C63.4141 386.283 61.775 395.056 60.3488 403.828C59.6463 408.236 58.9864 412.623 58.4968 417.03C58.284 419.16 58.0924 421.438 58.0924 423.589C58.1034 424.651 58.1888 425.711 58.3478 426.761L58.9439 430.062C59.7315 434.448 60.5404 438.835 61.2003 443.264C61.9647 447.722 62.3139 452.241 62.2433 456.764C62.076 461.275 61.5205 465.763 60.583 470.179C59.7102 474.565 58.7097 478.909 57.7305 483.274C57.6798 483.484 57.5491 483.666 57.3662 483.782C57.1834 483.897 56.9628 483.936 56.7513 483.892C56.6467 483.871 56.5472 483.83 56.4589 483.771C56.3706 483.711 56.2954 483.634 56.2377 483.545C56.18 483.455 56.141 483.355 56.1232 483.25C56.1054 483.144 56.1091 483.037 56.134 482.933C57.9647 474.224 60.2637 465.515 60.3914 456.742C60.4214 452.332 60.058 447.929 59.3057 443.583C58.6033 439.197 57.7731 434.81 56.9642 430.424L56.3468 427.145C56.1613 425.983 56.0617 424.808 56.0488 423.631C56.0488 421.332 56.2191 419.096 56.4107 416.839C56.879 412.367 57.5176 407.938 58.2201 403.53C59.6038 394.694 61.179 385.921 62.6265 377.105C63.3503 372.719 64.0314 368.311 64.6062 363.925C64.8829 361.795 65.1596 359.517 65.3299 357.324C65.5002 355.131 65.4789 353.065 65.6705 350.616C66.4275 346.106 67.721 341.703 69.5235 337.5C71.12 333.241 72.6952 329.195 73.8873 324.979C75.1016 320.77 75.9211 316.458 76.3353 312.097C76.5802 307.685 76.5802 303.264 76.3353 298.852C76.0774 289.86 76.4259 280.861 77.3783 271.916C77.855 267.385 78.753 262.908 80.0605 258.544C80.7811 256.286 81.8051 254.137 83.1045 252.156C83.4877 251.666 83.9347 251.176 84.3604 250.708C84.6554 250.375 84.9326 250.027 85.1906 249.665C85.6776 248.846 86.0298 247.955 86.2337 247.024C86.892 242.756 87.0349 238.423 86.6594 234.12C86.4678 229.67 86.1911 225.199 86.1273 220.684C86.0297 216.137 86.2716 211.589 86.851 207.078C87.1687 204.797 87.6453 202.542 88.2772 200.328C88.9371 198.199 89.597 196.069 90.4059 193.94C93.3226 185.361 97.1852 177.134 101.922 169.41C104.381 165.543 107.196 161.914 110.33 158.572C111.924 156.904 113.608 155.326 115.375 153.844L118.228 151.715C118.696 151.396 119.165 151.034 119.654 150.714L121.187 149.884C125.287 147.55 129.809 146.052 134.491 145.476C136.85 145.284 139.221 145.284 141.58 145.476C143.949 145.703 146.28 146.225 148.519 147.031C152.969 148.657 157.051 151.154 160.525 154.377C163.916 157.548 166.904 161.124 169.423 165.023C174.42 172.7 178.27 181.064 180.854 189.852C180.996 190.377 180.932 190.936 180.674 191.415C180.417 191.894 179.986 192.257 179.47 192.428C178.946 192.57 178.386 192.506 177.907 192.248C177.428 191.991 177.066 191.56 176.895 191.044L176.916 190.618Z" fill="#267AFF"/>
<path d="M88.7868 247.386C90.6773 250.902 92.0673 254.665 92.9164 258.565C93.7793 262.353 94.3275 266.206 94.5555 270.085C94.8004 273.928 94.8004 277.783 94.5555 281.626C94.4491 283.542 94.2149 285.459 94.0234 287.375L93.1931 293.06C93.1947 293.079 93.1915 293.097 93.1837 293.114C93.176 293.131 93.164 293.145 93.149 293.156C93.1339 293.167 93.1163 293.174 93.098 293.175C93.0796 293.177 93.061 293.174 93.0441 293.167C93.0084 293.162 92.9758 293.144 92.9523 293.116C92.9288 293.089 92.9161 293.054 92.9164 293.018L93.406 287.311C93.406 285.395 93.5976 283.5 93.5976 281.605C93.6131 277.804 93.3927 274.007 92.9377 270.234C92.4875 266.488 91.7329 262.785 90.6813 259.161C89.7244 255.627 88.2922 252.239 86.4239 249.09V248.962C86.3163 248.794 86.2428 248.607 86.2075 248.411C86.1723 248.214 86.176 248.013 86.2185 247.818C86.261 247.624 86.3414 247.439 86.4552 247.275C86.569 247.112 86.7138 246.972 86.8816 246.865C87.0493 246.757 87.2366 246.683 87.4327 246.648C87.6289 246.613 87.83 246.616 88.0247 246.659C88.2195 246.702 88.4039 246.782 88.5675 246.896C88.7311 247.01 88.8707 247.155 88.9783 247.322L88.7868 247.386Z" fill="#267AFF"/>
<path d="M68.2876 348.125L58.3892 381.726C55.0826 392.926 51.847 404.141 48.6824 415.369C47.1284 420.991 45.5745 426.612 44.1057 432.255C42.6369 437.898 41.2532 443.498 40.1889 449.29C38.1686 460.843 35.105 472.189 31.0355 483.189C31.0023 483.269 30.9397 483.333 30.8606 483.369C30.7815 483.405 30.6918 483.409 30.6098 483.38C30.5349 483.352 30.4724 483.298 30.4335 483.228C30.3945 483.158 30.3816 483.076 30.3969 482.997C33.1003 471.648 36.0379 460.362 38.0815 448.928C39.0819 443.179 40.4018 437.387 41.828 431.744C43.2542 426.101 44.723 420.416 46.2344 414.709C52.2586 392.138 58.7085 369.674 65.3926 347.273C65.5417 346.929 65.812 346.651 66.1522 346.493C66.4925 346.334 66.879 346.306 67.2386 346.414C67.5981 346.521 67.9057 346.757 68.103 347.076C68.3003 347.396 68.3735 347.777 68.3089 348.146L68.2876 348.125Z" fill="#267AFF"/>
<path d="M60.2214 446.862C55.964 451.121 43.575 453.25 39.6582 446.224" stroke="#267AFF" stroke-width="1.43" stroke-linecap="round" stroke-linejoin="round"/>
<path d="M50.4283 406.043C47.2566 408.428 44.0423 410.94 41.1685 413.602C39.7102 414.919 38.3512 416.343 37.1027 417.861C36.5398 418.483 36.0992 419.205 35.8042 419.99C35.4787 421.052 35.0058 422.062 34.3993 422.993C32.1255 426.426 29.373 429.516 26.2251 432.17C23.2419 434.95 19.658 437.005 15.752 438.175C19.5075 436.744 22.8808 434.463 25.6078 431.51C28.4353 428.72 30.8638 425.553 32.8241 422.098C33.2613 421.306 33.5974 420.462 33.8245 419.586C34.103 418.45 34.6261 417.389 35.3572 416.477C36.6019 414.817 37.9757 413.257 39.4656 411.814C42.3819 408.896 45.4259 406.235 48.5764 403.616C48.7287 403.469 48.9099 403.355 49.1084 403.281C49.3069 403.208 49.5185 403.176 49.7298 403.189C49.941 403.201 50.1475 403.257 50.3361 403.353C50.5246 403.449 50.6913 403.583 50.8255 403.747C50.9597 403.911 51.0585 404.101 51.1157 404.305C51.173 404.508 51.1874 404.722 51.1581 404.932C51.1288 405.141 51.0564 405.343 50.9454 405.523C50.8345 405.703 50.6874 405.858 50.5135 405.979L50.4283 406.043Z" fill="#267AFF"/>
<path d="M55.9425 450.376C55.1761 457.076 54.2112 463.741 53.0475 470.37C52.4514 473.692 51.7915 477.014 50.9188 480.293C50.19 483.629 49.0681 486.867 47.5767 489.939C47.5433 490 47.498 490.055 47.4435 490.099C47.389 490.143 47.3263 490.176 47.2591 490.196C47.1918 490.216 47.1213 490.222 47.0516 490.214C46.9819 490.207 46.9144 490.185 46.853 490.152C46.7357 490.088 46.6465 489.983 46.6031 489.857C46.5598 489.731 46.5654 489.593 46.6188 489.47C47.9102 486.433 48.8322 483.252 49.3648 479.995C49.9821 476.716 50.493 473.415 50.9188 470.115C51.749 463.492 52.3663 456.806 52.792 450.163C52.8536 449.788 53.0522 449.449 53.3495 449.212C53.6468 448.975 54.0214 448.857 54.4007 448.881C54.78 448.905 55.1369 449.069 55.4021 449.341C55.6673 449.613 55.822 449.975 55.836 450.354L55.9425 450.376Z" fill="#267AFF"/>
<path d="M37.4659 490.492C39.6811 484.062 41.4591 477.488 42.7876 470.817C44.1274 464.199 44.8402 457.469 44.9163 450.717C44.9605 450.344 45.1398 450 45.4203 449.751C45.7009 449.501 46.0631 449.364 46.4383 449.364C46.8136 449.364 47.1758 449.501 47.4564 449.751C47.7369 450 47.9162 450.344 47.9603 450.717C47.471 457.618 46.3161 464.457 44.5119 471.137C42.816 477.779 40.6826 484.302 38.1258 490.663C38.0882 490.75 38.0182 490.818 37.9307 490.854C37.8431 490.89 37.7451 490.89 37.6575 490.854C37.5773 490.821 37.5129 490.759 37.4773 490.68C37.4417 490.6 37.4376 490.511 37.4659 490.429V490.492Z" fill="#267AFF"/>
<path d="M193.392 256.138C194.286 267.636 194.67 279.028 194.733 290.505C194.797 301.982 194.414 313.438 193.371 324.894C192.497 336.438 190.406 347.858 187.134 358.963C185.42 364.732 182.805 370.194 179.386 375.146C178.406 376.445 177.534 377.489 176.64 378.596L173.979 381.875L168.742 388.561C155.076 406.49 142.751 425.612 134.683 446.5C130.547 456.876 127.791 467.751 126.488 478.845C125.218 489.887 125.903 501.066 128.51 511.871C129.872 517.173 131.596 522.731 133.129 528.267C134.662 533.803 135.875 539.403 136.918 545.046C137.961 550.689 139.047 556.31 139.898 561.953C140.75 567.596 141.559 573.26 142.133 578.988C144.676 601.722 145.792 624.593 145.475 647.467C145.414 658.906 144.768 670.334 143.538 681.707L142.368 690.224C141.963 692.971 141.623 695.76 141.431 698.55C141.044 704.163 140.966 709.793 141.197 715.414C141.68 726.717 142.846 737.981 144.688 749.143C146.476 760.322 148.732 771.48 151.5 782.403C151.551 782.609 151.559 782.823 151.522 783.033C151.486 783.242 151.405 783.441 151.287 783.617C147.292 789.643 143.735 795.947 140.643 802.483C139.09 805.664 137.912 809.016 137.131 812.469C136.771 814.01 136.771 815.613 137.131 817.154C137.294 817.723 137.638 818.224 138.11 818.58C138.741 818.927 139.414 819.191 140.111 819.368C141.618 819.635 143.17 819.4 144.531 818.7C145.892 818 146.986 816.874 147.647 815.493C149.378 812.497 150.506 809.191 150.967 805.762C151.989 798.658 151.989 791.445 150.967 784.341C150.925 783.938 151.042 783.535 151.292 783.216C151.543 782.898 151.907 782.691 152.309 782.637C152.709 782.595 153.11 782.712 153.424 782.963C153.739 783.214 153.942 783.579 153.99 783.979C155.044 791.38 155.044 798.893 153.99 806.294C153.457 810.126 152.177 813.816 150.222 817.154C149.121 818.91 147.609 820.372 145.816 821.412C143.868 822.484 141.59 822.788 139.43 822.264C138.351 822.011 137.322 821.58 136.386 820.987C135.366 820.256 134.617 819.208 134.257 818.006C133.768 815.976 133.768 813.86 134.257 811.83C135.106 808.153 136.362 804.582 138.004 801.184C141.17 794.489 144.82 788.035 148.924 781.871L148.711 783.106C145.837 772.012 143.517 760.854 141.644 749.569C139.713 738.298 138.462 726.921 137.897 715.499C137.638 709.752 137.688 703.994 138.046 698.252C138.217 695.377 138.557 692.503 138.962 689.628L140.069 681.238C141.194 669.981 141.755 658.674 141.75 647.361C141.876 624.688 140.582 602.03 137.876 579.52C137.259 573.877 136.365 568.298 135.556 562.698C134.747 557.098 133.725 551.519 132.49 546.004C131.256 540.489 130 534.996 128.638 529.523C127.275 524.051 125.423 518.876 123.891 513.106C121.074 501.757 120.281 490.001 121.549 478.377C122.821 466.826 125.605 455.494 129.83 444.669C138.131 423.035 150.606 403.445 164.357 385.176C166.081 382.876 167.827 380.619 169.615 378.362L172.276 374.997C173.17 373.89 174.106 372.74 174.83 371.761C177.855 367.311 180.154 362.409 181.642 357.239C184.709 346.504 186.643 335.478 187.411 324.34C188.369 313.119 188.645 301.833 188.539 290.527C188.432 279.22 187.943 267.892 187.028 256.691C187.021 255.865 187.326 255.066 187.882 254.456C188.438 253.845 189.205 253.466 190.028 253.396C190.851 253.326 191.67 253.57 192.322 254.078C192.973 254.587 193.409 255.322 193.541 256.138H193.392Z" fill="#267AFF"/>
<path d="M141.303 592.743C141.303 592.743 152.947 625.62 148.945 673.083C146.723 703.271 148.49 733.62 154.203 763.346" stroke="#267AFF" stroke-width="1.43" stroke-linecap="round" stroke-linejoin="round"/>
<path d="M142.942 616.464C142.942 616.464 123.614 636.82 120.484 674.786" stroke="#267AFF" stroke-width="1.43" stroke-linecap="round" stroke-linejoin="round"/>
<path d="M131.682 532.483C124.108 548.085 120.964 565.468 122.592 582.735" stroke="#267AFF" stroke-width="1.43" stroke-linecap="round" stroke-linejoin="round"/>
<path d="M212.955 614.526C212.955 614.526 233.944 636.799 237.116 674.786" stroke="#267AFF" stroke-width="1.43" stroke-linecap="round" stroke-linejoin="round"/>
<path d="M227.514 532.483C227.514 532.483 237.412 553.074 234.943 582.735" stroke="#267AFF" stroke-width="1.43" stroke-linecap="round" stroke-linejoin="round"/>
<path d="M191.029 329.323C191.029 329.323 234.518 333.454 234.518 371.037" stroke="#267AFF" stroke-width="1.43" stroke-linecap="round" stroke-linejoin="round"/>
<path d="M217.297 339.523C217.297 339.523 200.395 372.336 209.059 393.139" stroke="#267AFF" stroke-width="1.43" stroke-linecap="round" stroke-linejoin="round"/>
<path d="M182.216 367.247C188.082 376.585 193.405 386.254 198.16 396.206C203.027 406.15 207.113 416.459 210.378 427.038C213.867 437.694 215.46 448.879 215.083 460.086C214.657 470.966 214.465 481.911 214.316 492.856C214.018 514.724 213.997 536.614 214.104 558.482C214.21 580.35 214.423 602.261 215.189 624.087C215.381 629.559 215.743 634.968 215.977 640.483C216.211 645.998 216.381 651.47 216.488 656.943C216.672 667.93 216.622 678.903 216.339 689.862C216.041 700.85 215.508 711.816 214.444 722.782C213.912 728.254 213.252 733.727 212.315 739.178C211.514 744.782 209.923 750.245 207.59 755.403L206.696 757.192C206.411 757.74 206.169 758.31 205.972 758.895C205.567 760.08 205.267 761.299 205.078 762.536C204.737 765.109 204.737 767.715 205.078 770.287C205.873 775.571 207.303 780.74 209.335 785.682C211.272 790.708 213.593 795.626 215.934 800.588C217.105 803.079 218.297 805.528 219.383 808.126C220.815 810.881 221.351 814.015 220.915 817.09C220.688 817.97 220.279 818.792 219.714 819.503C219.15 820.215 218.442 820.8 217.637 821.221C216.26 821.935 214.769 822.403 213.231 822.605C210.336 823.052 207.568 823.073 204.929 823.308H203.928C203.362 823.374 202.788 823.316 202.247 823.137C201.269 822.766 200.444 822.076 199.905 821.178C199.109 819.832 198.561 818.353 198.287 816.813C197.751 814.005 197.466 811.155 197.436 808.296C197.314 802.767 197.513 797.236 198.032 791.73C198.521 786.215 199.16 780.763 200.161 775.27C200.243 774.876 200.476 774.531 200.811 774.308C201.145 774.085 201.554 774.002 201.949 774.077C202.144 774.113 202.33 774.187 202.496 774.296C202.663 774.405 202.806 774.545 202.917 774.71C203.028 774.875 203.105 775.06 203.143 775.255C203.182 775.45 203.181 775.65 203.141 775.845C202.162 781.179 201.451 786.558 201.012 791.964C200.52 797.357 200.335 802.775 200.459 808.189C200.519 810.826 200.789 813.453 201.267 816.047C201.48 817.205 201.882 818.32 202.46 819.347C202.606 819.65 202.855 819.891 203.162 820.028C203.162 820.028 203.268 820.028 203.481 820.028H204.546C207.334 819.794 210.059 819.752 212.592 819.347C215.125 818.943 217.339 818.027 217.658 816.196C217.878 815.108 217.835 813.984 217.531 812.917C217.206 811.677 216.779 810.466 216.253 809.297C215.232 806.848 214.125 804.378 212.848 801.929C210.485 796.989 208.122 791.985 206.121 786.811C203.973 781.626 202.465 776.199 201.629 770.649C201.246 767.78 201.246 764.873 201.629 762.004C201.847 760.556 202.196 759.13 202.672 757.745C202.911 757.015 203.203 756.304 203.545 755.616L204.482 753.742C206.589 748.886 208.022 743.763 208.739 738.518C209.655 733.194 210.314 727.871 210.868 722.377C211.868 711.539 212.358 700.615 212.635 689.713C212.911 678.811 212.89 667.866 212.635 656.964C212.507 651.492 212.337 646.04 212.081 640.589C211.826 635.138 211.443 629.666 211.251 624.194C210.4 602.261 210.144 580.372 209.931 558.461C209.718 536.55 209.718 514.639 209.931 492.728C210.038 481.783 210.208 470.817 210.612 459.851C210.935 449.129 209.372 438.433 205.993 428.252C202.772 417.993 198.78 407.992 194.051 398.335C189.316 388.574 184.043 379.084 178.256 369.908C177.928 369.382 177.82 368.747 177.955 368.142C178.091 367.536 178.459 367.008 178.98 366.672C179.239 366.503 179.529 366.389 179.833 366.334C180.137 366.279 180.449 366.286 180.75 366.353C181.051 366.421 181.336 366.548 181.588 366.727C181.84 366.906 182.053 367.133 182.216 367.396V367.247Z" fill="#267AFF"/>
<path d="M212.955 441.986C212.955 441.986 223.769 438.153 227.196 463.152C230.623 488.15 226.302 526.542 227.196 538.807C228.09 551.072 235.179 592.743 229.495 616.464C226.877 627.43 223.833 645.636 223.833 645.636" stroke="#267AFF" stroke-width="1.43" stroke-linecap="round" stroke-linejoin="round"/>
<path d="M220.044 376.807C217.863 370.834 214.112 365.56 209.188 361.54" stroke="#267AFF" stroke-width="1.43" stroke-linecap="round" stroke-linejoin="round"/>
<path d="M192.859 309.904C199.259 311.424 205.774 312.414 212.337 312.863C219.192 313.605 225.527 316.868 230.111 322.019" stroke="#267AFF" stroke-width="1.43" stroke-linecap="round" stroke-linejoin="round"/>
<path d="M234.688 425.122C234.688 425.122 238.733 442.838 223.832 448.864" stroke="#267AFF" stroke-width="1.43" stroke-linecap="round" stroke-linejoin="round"/>
<path d="M246.076 454.251C246.076 454.251 245.523 440.091 232.367 441.773" stroke="#267AFF" stroke-width="1.43" stroke-linecap="round" stroke-linejoin="round"/>
<path d="M220.044 300.939C220.044 300.939 211.188 305.751 207.271 312.374" stroke="#267AFF" stroke-width="1.43" stroke-linecap="round" stroke-linejoin="round"/>
<path d="M195.243 363.116C194.095 369.649 191.538 375.855 187.75 381.3" stroke="#267AFF" stroke-width="1.43" stroke-linecap="round" stroke-linejoin="round"/>
<path d="M220.044 415.369C220.044 415.369 210.252 410.344 203.695 414.646" stroke="#267AFF" stroke-width="1.43" stroke-linecap="round" stroke-linejoin="round"/>
<path d="M214.254 418.734L210.23 412.899" stroke="#267AFF" stroke-width="1.43" stroke-linecap="round" stroke-linejoin="round"/>
<path d="M120.1 425.122C120.1 425.122 116.056 442.838 130.957 448.864" stroke="#267AFF" stroke-width="1.43" stroke-linecap="round" stroke-linejoin="round"/>
<path d="M108.734 454.251C108.734 454.251 109.288 440.091 122.443 441.773" stroke="#267AFF" stroke-width="1.43" stroke-linecap="round" stroke-linejoin="round"/>
<path d="M130.957 414.922C130.957 414.922 140.77 409.897 147.327 414.177" stroke="#267AFF" stroke-width="1.43" stroke-linecap="round" stroke-linejoin="round"/>
<path d="M136.748 418.287L140.771 412.431" stroke="#267AFF" stroke-width="1.43" stroke-linecap="round" stroke-linejoin="round"/>
<path d="M156.395 153.717C160.174 144.091 162.512 133.96 163.334 123.651C163.733 118.556 163.41 113.43 162.376 108.426C161.839 105.974 161.032 103.589 159.971 101.314C159.46 100.143 158.821 99.1845 158.183 97.992C157.544 96.7996 156.799 95.6711 156.224 94.4786C151.339 84.9124 148.169 74.5632 146.858 63.9014C146.038 58.5744 145.909 53.1636 146.475 47.8036C147.111 42.4235 148.835 37.2291 151.541 32.5363C151.59 32.4531 151.654 32.3805 151.731 32.3225C151.807 32.2645 151.895 32.2224 151.988 32.1986C152.081 32.1748 152.178 32.1698 152.273 32.1839C152.368 32.198 152.459 32.2309 152.542 32.2807C152.692 32.3734 152.804 32.5163 152.858 32.6839C152.913 32.8516 152.906 33.0331 152.84 33.1963C150.829 37.934 149.606 42.969 149.221 48.1017C148.893 53.2366 149.128 58.392 149.923 63.4755C151.259 73.7496 154.386 83.7097 159.162 92.9029C159.737 94.0528 160.418 95.0323 161.057 96.2673C163.228 99.7896 164.783 103.657 165.654 107.702C166.749 113.015 167.085 118.456 166.655 123.863C166.278 129.21 165.424 134.512 164.101 139.706C162.833 144.905 161.197 150.007 159.205 154.973C159.028 155.307 158.734 155.564 158.379 155.695C158.024 155.826 157.634 155.82 157.282 155.68C156.931 155.54 156.644 155.276 156.476 154.937C156.309 154.598 156.272 154.209 156.373 153.844L156.395 153.717Z" fill="#267AFF"/>
<path d="M159.929 49.1238C161.507 52.9467 162.691 56.9207 163.462 60.9842C164.274 65.054 164.737 69.1857 164.846 73.3343C164.974 77.5061 164.739 81.6811 164.143 85.8122C163.545 89.9759 162.613 94.0846 161.355 98.0985C161.301 98.2904 161.21 98.4697 161.086 98.6261C160.963 98.7826 160.809 98.913 160.635 99.01C160.461 99.107 160.27 99.1685 160.072 99.1912C159.874 99.2138 159.673 99.197 159.482 99.1419C159.093 99.0281 158.764 98.7649 158.569 98.4097C158.373 98.0546 158.327 97.6364 158.439 97.2468C159.875 93.468 161.007 89.5802 161.823 85.6206C162.661 81.6401 163.138 77.5922 163.249 73.526C163.406 69.4416 163.199 65.3514 162.632 61.3036C162.169 57.1586 161.263 53.0753 159.929 49.1238Z" fill="#267AFF"/>
<path d="M192.327 306.198C192.327 306.198 166.08 317.633 138.471 308.732" stroke="#267AFF" stroke-width="1.43" stroke-linecap="round" stroke-linejoin="round"/>
<path d="M153.905 312.118C153.905 312.118 138.451 326.555 121.975 320.188" stroke="#267AFF" stroke-width="1.43" stroke-linecap="round" stroke-linejoin="round"/>
<path d="M159.056 241.424C149.524 243.877 140.895 249.013 134.193 256.223C130.859 259.879 128.161 264.068 126.21 268.616C124.171 273.17 122.533 277.894 121.314 282.733C121.3 282.788 121.274 282.84 121.239 282.884C121.204 282.929 121.161 282.967 121.111 282.995C121.062 283.022 121.007 283.04 120.951 283.046C120.894 283.053 120.837 283.047 120.782 283.031C120.731 283.019 120.682 282.996 120.639 282.965C120.596 282.933 120.559 282.894 120.532 282.848C120.504 282.803 120.486 282.752 120.477 282.7C120.469 282.647 120.472 282.593 120.484 282.542C121.555 277.591 123.044 272.74 124.933 268.041C126.792 263.272 129.432 258.846 132.746 254.945C136.077 251.033 139.973 247.638 144.304 244.874C148.661 242.061 153.41 239.908 158.396 238.486C158.786 238.381 159.201 238.434 159.551 238.633C159.902 238.832 160.16 239.162 160.27 239.55C160.374 239.94 160.321 240.355 160.122 240.706C159.923 241.057 159.593 241.315 159.205 241.424H159.056Z" fill="#267AFF"/>
<path d="M132.127 257.117C132.127 257.117 135.682 258.863 140.94 272.278" stroke="#267AFF" stroke-linecap="round" stroke-linejoin="round"/>
<path d="M155.628 265.486C152.77 264.353 149.738 263.719 146.666 263.612C145.184 263.584 143.706 263.778 142.281 264.187C140.935 264.626 139.7 265.352 138.662 266.316C138.46 266.512 138.189 266.622 137.906 266.622C137.624 266.622 137.353 266.512 137.151 266.316C137.051 266.217 136.972 266.099 136.918 265.97C136.864 265.84 136.836 265.701 136.836 265.56C136.836 265.42 136.864 265.28 136.918 265.151C136.972 265.021 137.051 264.903 137.151 264.804C138.514 263.761 140.092 263.033 141.77 262.675C143.371 262.431 145.001 262.431 146.602 262.675C149.752 263.078 152.806 264.029 155.628 265.486Z" fill="#267AFF"/>
<path d="M146.178 263.037C146.538 264.087 146.823 265.161 147.029 266.252C147.228 267.322 147.363 268.403 147.434 269.489C147.564 271.639 147.348 273.795 146.795 275.877C146.751 276.009 146.659 276.12 146.536 276.187C146.414 276.254 146.271 276.273 146.135 276.239C146.011 276.204 145.904 276.123 145.837 276.012C145.77 275.901 145.747 275.769 145.773 275.642C146.114 273.641 146.114 271.597 145.773 269.595C145.644 268.587 145.437 267.591 145.156 266.614C144.887 265.655 144.553 264.716 144.156 263.803C144.04 263.546 144.032 263.254 144.132 262.991C144.231 262.727 144.431 262.514 144.688 262.398C144.945 262.283 145.237 262.274 145.5 262.374C145.764 262.474 145.977 262.674 146.093 262.93L146.178 263.037Z" fill="#267AFF"/>
<path d="M134.895 279.369C134.795 277.495 135.07 275.62 135.704 273.854C136.071 272.928 136.581 272.066 137.216 271.299C137.913 270.52 138.76 269.89 139.706 269.446C139.831 269.381 139.968 269.343 140.109 269.332C140.249 269.322 140.391 269.34 140.524 269.386C140.657 269.432 140.78 269.504 140.884 269.599C140.989 269.693 141.073 269.808 141.132 269.936C141.194 270.062 141.23 270.198 141.239 270.338C141.248 270.478 141.229 270.618 141.184 270.751C141.138 270.883 141.067 271.006 140.974 271.111C140.881 271.216 140.769 271.301 140.643 271.363H140.494C139.722 271.576 138.999 271.938 138.365 272.427C137.747 272.97 137.223 273.61 136.811 274.322C135.948 275.857 135.412 277.553 135.236 279.305C135.233 279.33 135.226 279.355 135.213 279.377C135.201 279.399 135.185 279.419 135.165 279.435C135.145 279.45 135.122 279.462 135.098 279.469C135.074 279.476 135.048 279.478 135.023 279.475C135.023 279.475 134.917 279.454 134.895 279.369Z" fill="#267AFF"/>
<path d="M198.181 229.777C202.438 229.5 206.695 229.521 210.953 229.67C215.21 229.819 219.468 230.16 223.725 230.671C227.982 231.182 232.24 231.842 236.327 232.8C240.487 233.652 244.601 234.718 248.652 235.994C248.652 235.994 248.652 235.994 248.652 236.122C244.546 235.081 240.389 234.25 236.199 233.631C232.027 232.992 227.833 232.545 223.618 232.289C219.361 232.034 215.104 231.927 210.974 232.012C206.844 232.098 202.459 232.31 198.457 232.8C198.256 232.831 198.052 232.82 197.855 232.769C197.658 232.719 197.474 232.629 197.312 232.505C197.151 232.381 197.017 232.227 196.917 232.05C196.817 231.873 196.753 231.678 196.73 231.476C196.707 231.274 196.725 231.069 196.783 230.875C196.841 230.68 196.938 230.499 197.067 230.342C197.197 230.186 197.356 230.057 197.537 229.963C197.717 229.87 197.914 229.813 198.117 229.798L198.181 229.777Z" fill="#263238"/>
<path d="M233.135 232.609C234.219 234.559 235.172 236.579 235.987 238.656C236.815 240.701 237.526 242.791 238.116 244.916C238.677 247.013 239.082 249.148 239.329 251.304C239.563 253.475 239.606 255.663 239.457 257.841C239.427 255.697 239.206 253.559 238.797 251.453C238.38 249.342 237.811 247.264 237.094 245.236C236.38 243.206 235.541 241.221 234.582 239.295C233.661 237.382 232.6 235.539 231.411 233.78C231.255 233.542 231.2 233.252 231.255 232.974C231.311 232.695 231.474 232.449 231.709 232.289C231.943 232.135 232.229 232.08 232.504 232.136C232.779 232.192 233.021 232.354 233.177 232.587L233.135 232.609Z" fill="#263238"/>
<path d="M225.514 245.555C228.806 243.431 232.605 242.226 236.519 242.063" stroke="#263238" stroke-width="0.5" stroke-linecap="round" stroke-linejoin="round"/>
<path d="M246.418 255.158C246.418 255.158 244.736 252.773 239.053 251.794" stroke="#263238" stroke-width="0.5" stroke-linecap="round" stroke-linejoin="round"/>
<path d="M200.821 238.464C205.798 239.917 210.528 242.114 214.849 244.98C219.159 247.748 223.027 251.151 226.323 255.073C229.593 258.982 232.19 263.407 234.007 268.169C235.831 272.859 237.255 277.696 238.265 282.627C237.013 277.769 235.354 273.025 233.305 268.445C231.319 263.887 228.577 259.697 225.195 256.053C218.43 248.871 209.75 243.78 200.182 241.381H200.076C199.684 241.291 199.343 241.049 199.13 240.707C198.916 240.366 198.847 239.953 198.937 239.561C199.027 239.168 199.27 238.828 199.611 238.614C199.953 238.401 200.365 238.331 200.757 238.422L200.821 238.464Z" fill="#267AFF"/>
<path d="M227.088 257.117C227.088 257.117 223.533 258.863 218.275 272.278" stroke="#267AFF" stroke-linecap="round" stroke-linejoin="round"/>
<path d="M203.504 265.486C203.504 265.486 214.765 259.928 221.172 265.486" stroke="#267AFF" stroke-linecap="round" stroke-linejoin="round"/>
<path d="M215.02 263.867C214.567 264.764 214.19 265.697 213.892 266.657C213.571 267.625 213.315 268.614 213.125 269.616C212.706 271.663 212.649 273.768 212.955 275.834C212.285 273.774 211.983 271.611 212.061 269.446C212.08 268.362 212.172 267.281 212.338 266.21C212.492 265.113 212.734 264.031 213.061 262.973C213.146 262.691 213.339 262.453 213.599 262.314C213.858 262.174 214.163 262.143 214.445 262.228C214.727 262.312 214.964 262.506 215.104 262.765C215.244 263.025 215.275 263.329 215.19 263.612V263.782L215.02 263.867Z" fill="#267AFF"/>
<path d="M224.13 279.369C223.921 277.599 223.356 275.89 222.47 274.344C222.029 273.64 221.484 273.008 220.852 272.47C220.22 271.982 219.496 271.627 218.723 271.426C218.587 271.387 218.459 271.322 218.349 271.233C218.238 271.144 218.146 271.033 218.079 270.908C218.011 270.783 217.97 270.646 217.956 270.505C217.942 270.363 217.957 270.221 218 270.085C218.039 269.951 218.104 269.826 218.191 269.716C218.279 269.607 218.387 269.517 218.51 269.45C218.632 269.382 218.767 269.34 218.906 269.325C219.045 269.309 219.185 269.322 219.319 269.361H219.511C220.448 269.819 221.281 270.464 221.959 271.256C222.574 272.026 223.063 272.888 223.407 273.811C224.036 275.592 224.282 277.486 224.13 279.369Z" fill="#267AFF"/>
<path d="M145.538 418.734C145.538 418.734 130.637 470.37 139.301 513.745" stroke="#267AFF" stroke-width="1.43" stroke-linecap="round" stroke-linejoin="round"/>
<path d="M140.131 454.251C140.131 454.251 148.773 460.639 147.794 479.228" stroke="#267AFF" stroke-width="1.43" stroke-linecap="round" stroke-linejoin="round"/>
<path d="M168.699 15.0544C162.015 15.0544 152.435 23.2311 151.371 34.5591" stroke="#267AFF" stroke-width="0.5" stroke-linecap="round" stroke-linejoin="round"/>
<path d="M167.57 32.3233C167.57 32.3233 159.055 28.0646 152.18 32.8131" stroke="#267AFF" stroke-width="0.5" stroke-linecap="round" stroke-linejoin="round"/>
<path d="M174.957 21.1443C174.957 21.1443 162.014 17.7161 153.67 26.4251" stroke="#267AFF" stroke-width="0.5" stroke-linecap="round" stroke-linejoin="round"/>
<path d="M170.764 210.804C170.764 210.804 159.567 216.106 158.971 226.135C158.375 236.165 161.93 249.409 168.997 254.115C176.064 258.821 196.968 266.486 204.631 265.613C212.294 264.74 213.763 259.715 214.934 251.751C216.105 243.788 213.167 234.972 211.698 230.245C210.23 225.518 204.908 219.066 201.055 215.531C197.202 211.997 195.158 211.102 187.495 209.037C179.832 206.971 170.764 210.804 170.764 210.804Z" fill="#267AFF"/>
<path opacity="0.58" d="M170.764 210.804C170.764 210.804 159.567 216.106 158.971 226.135C158.375 236.165 161.93 249.409 168.997 254.115C176.064 258.821 196.968 266.486 204.631 265.613C212.294 264.74 213.763 259.715 214.934 251.751C216.105 243.788 213.167 234.972 211.698 230.245C210.23 225.518 204.908 219.066 201.055 215.531C197.202 211.997 195.158 211.102 187.495 209.037C179.832 206.971 170.764 210.804 170.764 210.804Z" fill="white"/>
<path d="M170.764 210.804C170.764 210.804 159.567 216.106 158.971 226.135C158.375 236.165 161.93 249.409 168.997 254.115C176.064 258.821 196.968 266.486 204.631 265.613C212.294 264.74 213.763 259.715 214.934 251.751C216.105 243.788 213.167 234.972 211.698 230.245C210.23 225.518 204.908 219.066 201.055 215.531C197.202 211.997 195.158 211.102 187.495 209.037C179.832 206.971 170.764 210.804 170.764 210.804Z" stroke="#263238" stroke-miterlimit="10"/>
<path d="M176.937 220.237C176.937 220.237 171.041 219.343 170.764 210.804C170.487 202.266 179.279 192.535 179.279 192.535C178.403 190.618 177.415 188.756 176.32 186.956L173.702 182.229L178.108 180.461C179.401 181.735 180.583 183.117 181.642 184.592C182.536 186.061 184.303 189.596 184.303 189.596V182.229L189.007 181.93L190.497 190.448C190.497 190.448 189.603 188.318 196.372 190.725C203.142 193.131 205.802 199.859 206.101 205.161C206.005 209.563 205.289 213.929 203.972 218.129L193.967 210.762C193.967 210.762 194.84 199.561 190.433 200.456C186.027 201.35 186.602 205.758 183.643 212.231C180.684 218.704 176.937 220.237 176.937 220.237Z" fill="white" stroke="#263238" stroke-linecap="round" stroke-linejoin="round"/>
<path d="M181.641 216.106C181.641 216.106 187.537 202.266 193.434 200.2C197.161 198.682 201.197 198.076 205.205 198.433C207.334 198.731 208.164 202.564 208.164 206.396C208.164 210.229 202.566 208.526 199.33 211.997C196.094 215.467 196.669 222.005 196.669 222.005" fill="#267AFF"/>
<path d="M181.641 216.106C181.641 216.106 187.537 202.266 193.434 200.2C197.161 198.682 201.197 198.076 205.205 198.433C207.334 198.731 208.164 202.564 208.164 206.396C208.164 210.229 202.566 208.526 199.33 211.997C196.094 215.467 196.669 222.005 196.669 222.005" stroke="#263238" stroke-linecap="round" stroke-linejoin="round"/>
<path d="M211.06 232.076C210.09 230.492 208.676 229.226 206.995 228.435L205.781 227.945C205.441 227.775 205.079 227.583 204.738 227.37C204.046 226.911 203.384 226.406 202.759 225.859C201.495 224.723 200.314 223.499 199.225 222.196L197.65 223.58C198.906 224.873 200.258 226.069 201.694 227.158C201.856 227.276 202.027 227.383 202.205 227.477C200.608 229.019 199.347 230.875 198.501 232.928C197.489 235.612 197.246 238.525 197.799 241.339C198.161 244.064 198.65 246.726 198.927 249.43C199.458 252.109 199.084 254.888 197.863 257.33C199.242 254.926 199.802 252.138 199.459 249.388C199.331 246.662 199.012 243.937 198.842 241.232C198.476 238.624 198.86 235.965 199.949 233.567C200.163 233.102 200.412 232.653 200.694 232.225C201.673 233.855 202.446 235.6 202.993 237.421C203.659 239.722 204.038 242.096 204.121 244.49C204.194 246.961 204.493 249.42 205.015 251.837C205.293 253.045 205.693 254.222 206.207 255.35C206.691 256.491 207.469 257.484 208.463 258.225C207.535 257.434 206.842 256.403 206.462 255.243C206.031 254.109 205.724 252.931 205.547 251.73C205.186 249.335 205.057 246.91 205.164 244.49C205.263 241.981 205.041 239.469 204.504 237.016C204.003 234.729 203.156 232.532 201.992 230.501C202.58 229.799 203.236 229.157 203.951 228.584C204.372 228.801 204.805 228.993 205.249 229.159C205.739 229.329 206.143 229.415 206.505 229.521C208.084 230.071 209.472 231.061 210.507 232.374C211.585 233.734 212.374 235.299 212.827 236.974C212.57 235.24 211.969 233.575 211.06 232.076Z" fill="#263238"/>
<path d="M178.407 234.376C177.161 233.808 176.067 232.955 175.214 231.885C174.581 231.043 174.151 230.067 173.958 229.031C174.743 228.269 175.455 227.435 176.086 226.54C177.3 224.73 179.258 221.302 178.875 218.683L175.852 220.429C175.567 222.103 174.905 223.691 173.915 225.071C172.895 226.645 171.671 228.076 170.275 229.329C168.325 230.939 166.23 232.365 164.017 233.588L161.888 234.717L160.334 235.483L161.909 235.143C161.978 236.442 162.2 237.728 162.569 238.975C163.097 240.808 163.947 242.531 165.081 244.064C166.175 245.582 167.393 247.006 168.721 248.323C170.017 249.624 171.443 250.787 172.978 251.794C171.561 250.657 170.276 249.364 169.147 247.94C167.997 246.552 166.945 245.086 165.996 243.553C165.113 242.049 164.487 240.409 164.144 238.699C163.856 237.371 163.755 236.009 163.846 234.653C164.571 234.417 165.282 234.139 165.975 233.822C167.887 233.078 169.702 232.105 171.382 230.926C171.637 230.756 171.871 230.564 172.106 230.373C172.53 231.312 173.105 232.175 173.809 232.928C174.912 234.021 176.252 234.844 177.725 235.334C180.44 236.347 183.055 237.609 185.538 239.103C183.305 237.319 180.919 235.737 178.407 234.376Z" fill="#263238"/>
</svg>
